<svg xmlns="http://www.w3.org/2000/svg" xmlns:xlink="http://www.w3.org/1999/xlink" width="500" zoomAndPan="magnify" viewBox="0 0 375 374.999991" height="500" preserveAspectRatio="xMidYMid meet" version="1.0"><defs><clipPath id="id1"><path d="M 97.734375 4.25 L 291.984375 4.25 L 291.984375 371.75 L 97.734375 371.75 Z M 97.734375 4.25 " clip-rule="nonzero"/></clipPath></defs><path fill="#ffffff" d="M 268.566406 91.4375 C 260.054688 91.4375 253.152344 98.34375 253.152344 106.867188 L 253.152344 183.105469 L 218.835938 183.105469 L 218.835938 40.582031 C 218.835938 23.082031 206.351562 12.125 190.949219 12.125 C 175.546875 12.125 163.058594 23.082031 163.058594 40.582031 L 163.058594 163.164062 L 134.929688 163.164062 L 134.929688 90.976562 C 134.929688 82.910156 128.398438 76.371094 120.335938 76.371094 C 112.277344 76.371094 105.746094 82.910156 105.746094 90.976562 C 105.746094 90.976562 105.746094 169.894531 105.746094 196.203125 C 105.746094 211.808594 123.71875 210.554688 123.71875 210.554688 L 163.054688 210.554688 L 163.054688 337.921875 C 163.054688 355.421875 175.542969 363.960938 190.945312 363.960938 C 206.351562 363.960938 218.835938 355.421875 218.835938 337.921875 L 218.835938 233.15625 C 218.835938 233.15625 256.773438 233.15625 269.417969 233.15625 C 276.949219 233.15625 283.976562 230.109375 283.976562 211.804688 C 283.976562 183.28125 283.976562 106.867188 283.976562 106.867188 C 283.976562 98.347656 277.078125 91.4375 268.566406 91.4375 Z M 268.566406 91.4375 " fill-opacity="1" fill-rule="nonzero"/><path fill="#97ceb6" d="M 268.566406 91.4375 C 260.054688 91.4375 253.152344 98.34375 253.152344 106.867188 L 253.152344 183.105469 L 218.835938 183.105469 L 218.835938 40.582031 C 218.835938 23.082031 206.351562 12.125 190.949219 12.125 C 187.890625 12.125 184.957031 12.574219 182.203125 13.402344 L 182.203125 362.933594 C 184.957031 363.609375 187.890625 363.960938 190.949219 363.960938 C 206.351562 363.960938 218.835938 355.417969 218.835938 337.921875 L 218.835938 233.15625 C 218.835938 233.15625 256.773438 233.15625 269.421875 233.15625 C 276.949219 233.15625 283.976562 230.105469 283.976562 211.804688 C 283.976562 183.28125 283.976562 106.867188 283.976562 106.867188 C 283.976562 98.347656 277.078125 91.4375 268.566406 91.4375 Z M 268.566406 91.4375 " fill-opacity="1" fill-rule="nonzero"/><path fill="#31b4a7" d="M 268.566406 91.4375 C 260.054688 91.4375 253.152344 98.34375 253.152344 106.867188 L 253.152344 183.105469 L 218.835938 183.105469 L 218.835938 40.582031 C 218.835938 26.792969 211.070312 17.09375 200.246094 13.585938 L 200.246094 362.78125 C 211.070312 359.914062 218.835938 351.710938 218.835938 337.921875 L 218.835938 233.15625 C 218.835938 233.15625 256.773438 233.15625 269.421875 233.15625 C 276.949219 233.15625 283.976562 230.109375 283.976562 211.804688 C 283.976562 183.28125 283.976562 106.867188 283.976562 106.867188 C 283.976562 98.347656 277.078125 91.4375 268.566406 91.4375 Z M 268.566406 91.4375 " fill-opacity="1" fill-rule="nonzero"/><g clip-path="url(#id1)"><path fill="#08857c" d="M 190.949219 371.800781 C 169.582031 371.800781 155.222656 358.1875 155.222656 337.921875 L 155.222656 218.394531 L 123.929688 218.394531 C 123.679688 218.40625 123.285156 218.417969 122.777344 218.417969 C 110.402344 218.417969 97.910156 211.550781 97.910156 196.203125 L 97.910156 90.976562 C 97.910156 78.597656 107.972656 68.527344 120.335938 68.527344 C 132.703125 68.527344 142.761719 78.601562 142.761719 90.976562 L 142.761719 155.324219 L 155.222656 155.324219 L 155.222656 40.582031 C 155.222656 19.546875 170.25 4.28125 190.949219 4.28125 C 211.648438 4.28125 226.671875 19.546875 226.671875 40.582031 L 226.671875 175.265625 L 245.320312 175.265625 L 245.320312 106.867188 C 245.320312 94.035156 255.746094 83.597656 268.566406 83.597656 C 281.382812 83.597656 291.808594 94.035156 291.808594 106.867188 L 291.808594 211.804688 C 291.808594 231.175781 284.277344 241 269.421875 241 L 226.671875 241 L 226.671875 337.921875 C 226.671875 358.1875 212.316406 371.800781 190.949219 371.800781 Z M 123.71875 202.710938 L 163.058594 202.710938 C 167.382812 202.710938 170.890625 206.222656 170.890625 210.554688 L 170.890625 337.921875 C 170.890625 354.347656 184.917969 356.121094 190.949219 356.121094 C 196.976562 356.121094 211.003906 354.347656 211.003906 337.921875 L 211.003906 233.15625 C 211.003906 228.824219 214.511719 225.316406 218.835938 225.316406 L 269.417969 225.316406 C 272.570312 225.316406 276.140625 225.316406 276.140625 211.804688 L 276.140625 106.867188 C 276.140625 102.683594 272.742188 99.28125 268.5625 99.28125 C 264.382812 99.28125 260.984375 102.683594 260.984375 106.867188 L 260.984375 183.105469 C 260.984375 187.4375 257.476562 190.949219 253.152344 190.949219 L 218.835938 190.949219 C 214.511719 190.949219 211.003906 187.4375 211.003906 183.105469 L 211.003906 40.582031 C 211.003906 26.339844 200.929688 19.964844 190.949219 19.964844 C 180.964844 19.964844 170.890625 26.339844 170.890625 40.582031 L 170.890625 163.164062 C 170.890625 167.496094 167.382812 171.007812 163.058594 171.007812 L 134.929688 171.007812 C 130.601562 171.007812 127.09375 167.496094 127.09375 163.164062 L 127.09375 90.976562 C 127.09375 87.246094 124.0625 84.210938 120.335938 84.210938 C 116.609375 84.210938 113.578125 87.246094 113.578125 90.976562 L 113.578125 196.203125 C 113.578125 197.988281 113.578125 202.738281 122.777344 202.738281 C 123.007812 202.738281 123.164062 202.730469 123.230469 202.730469 C 123.371094 202.71875 123.578125 202.710938 123.71875 202.710938 Z M 123.71875 202.710938 " fill-opacity="1" fill-rule="nonzero"/></g></svg>