<svg xmlns="http://www.w3.org/2000/svg" xmlns:xlink="http://www.w3.org/1999/xlink" width="500" zoomAndPan="magnify" viewBox="0 0 375 374.999991" height="500" preserveAspectRatio="xMidYMid meet" version="1.0"><defs><clipPath id="id1"><path d="M 175 72 L 206 72 L 206 370.574219 L 175 370.574219 Z M 175 72 " clip-rule="nonzero"/></clipPath><clipPath id="id2"><path d="M 4.574219 4.574219 L 370.574219 4.574219 L 370.574219 370.574219 L 4.574219 370.574219 Z M 4.574219 4.574219 " clip-rule="nonzero"/></clipPath></defs><g clip-path="url(#id1)"><path fill="rgb(0%, 52.159119%, 36.468506%)" d="M 190.4375 72.722656 C 182.140625 72.722656 175.414062 79.449219 175.414062 87.75 L 175.414062 355.582031 C 175.414062 363.878906 182.140625 370.605469 190.4375 370.605469 C 198.734375 370.605469 205.46875 363.878906 205.46875 355.582031 L 205.46875 87.75 C 205.46875 79.449219 198.734375 72.722656 190.4375 72.722656 " fill-opacity="1" fill-rule="nonzero"/></g><path fill="rgb(0%, 52.159119%, 36.468506%)" d="M 244.371094 182.746094 C 238.0625 182.746094 232.945312 187.859375 232.945312 194.167969 L 232.945312 229.554688 C 232.945312 252.992188 213.875 272.0625 190.4375 272.0625 L 190.4375 294.90625 C 207.898438 294.90625 224.308594 288.113281 236.652344 275.769531 C 249 263.421875 255.792969 247.011719 255.792969 229.554688 L 255.792969 194.167969 C 255.792969 187.859375 250.679688 182.746094 244.371094 182.746094 " fill-opacity="1" fill-rule="nonzero"/><path fill="rgb(0%, 52.159119%, 36.468506%)" d="M 130.824219 131.515625 C 137.132812 131.515625 142.25 136.628906 142.25 142.941406 L 142.25 178.324219 C 142.25 201.761719 161.316406 220.832031 184.753906 220.832031 L 184.753906 243.679688 C 167.296875 243.679688 150.886719 236.882812 138.542969 224.535156 C 126.199219 212.195312 119.398438 195.78125 119.398438 178.324219 L 119.398438 142.941406 C 119.398438 136.628906 124.515625 131.515625 130.824219 131.515625 " fill-opacity="1" fill-rule="nonzero"/><g clip-path="url(#id2)"><path fill="rgb(0%, 52.159119%, 36.468506%)" d="M 187.597656 354.65625 C 95.332031 354.65625 20.539062 279.859375 20.539062 187.597656 C 20.539062 95.332031 95.332031 20.535156 187.597656 20.535156 C 279.859375 20.535156 354.652344 95.332031 354.652344 187.597656 C 354.652344 279.859375 279.859375 354.65625 187.597656 354.65625 Z M 187.597656 4.589844 C 86.523438 4.589844 4.589844 86.523438 4.589844 187.597656 C 4.589844 288.671875 86.523438 370.605469 187.597656 370.605469 C 288.671875 370.605469 370.605469 288.671875 370.605469 187.597656 C 370.605469 86.523438 288.671875 4.589844 187.597656 4.589844 " fill-opacity="1" fill-rule="nonzero"/></g></svg>