<svg xmlns="http://www.w3.org/2000/svg" xmlns:xlink="http://www.w3.org/1999/xlink" width="500" zoomAndPan="magnify" viewBox="0 0 375 374.999991" height="500" preserveAspectRatio="xMidYMid meet" version="1.0"><defs><clipPath id="id1"><path d="M 64.933594 1.089844 L 282.921875 1.089844 L 282.921875 373.839844 L 64.933594 373.839844 Z M 64.933594 1.089844 " clip-rule="nonzero"/></clipPath><clipPath id="id2"><path d="M 232 161.699219 L 337.796875 161.699219 L 337.796875 373.445312 L 232 373.445312 Z M 232 161.699219 " clip-rule="nonzero"/></clipPath></defs><g clip-path="url(#id1)"><path fill="rgb(0%, 52.159119%, 36.468506%)" d="M 183.636719 15.5625 C 181.820312 21.859375 181.722656 28.367188 183.382812 34.691406 C 185.535156 42.902344 189.359375 50.460938 194.226562 57.441406 C 195.929688 59.886719 197.878906 62.164062 199.816406 64.429688 C 200.320312 65.027344 201.199219 65.308594 201.851562 65.703125 C 206.570312 60.503906 208.304688 56.148438 208.902344 48.152344 C 207.714844 48.179688 206.511719 48.382812 205.375 48.1875 C 203.609375 47.882812 202.5625 45.632812 203.273438 44.050781 C 203.769531 42.953125 205.609375 42.304688 206.96875 42.984375 C 207.835938 43.417969 208.492188 44.261719 209.261719 44.933594 C 212.054688 37.246094 212.171875 25.558594 209.421875 19.503906 C 207.992188 19.875 206.515625 20.257812 205.238281 20.589844 C 203.277344 19.207031 203.027344 17.601562 203.496094 15.726562 C 203.992188 13.726562 206.054688 14.246094 207.253906 13.394531 C 202.1875 4 196.441406 2.75 188.226562 9.207031 C 189.335938 14.226562 189.121094 14.539062 183.636719 15.5625 Z M 121.175781 251.632812 C 123.039062 247.507812 123.484375 243.667969 121.582031 239.742188 C 120.96875 238.480469 120.460938 237.167969 119.8125 235.929688 C 117.199219 230.933594 114.125 226.214844 110.378906 222.015625 C 104.253906 215.148438 96.789062 210.453125 87.527344 209.046875 C 84.765625 208.628906 82.015625 208.601562 78.984375 210.148438 C 79.890625 210.792969 80.429688 211.171875 80.964844 211.554688 C 81.949219 212.257812 82.140625 213.285156 81.933594 214.355469 C 81.699219 215.558594 80.699219 215.953125 79.617188 216.160156 C 77.6875 216.523438 76.585938 215.753906 76.269531 213.839844 C 76.148438 213.101562 77.085938 212.210938 76.023438 211.582031 C 69.167969 215.21875 67.1875 220.421875 70.125 227.273438 C 72.960938 233.902344 77.5625 239.050781 83.527344 243.082031 C 93.207031 249.628906 104.171875 251.625 115.535156 252.171875 C 117.414062 252.261719 119.324219 251.824219 121.175781 251.632812 Z M 214.621094 65.488281 C 210.976562 65.953125 208.773438 68.074219 206.273438 69.679688 C 201.753906 72.585938 198.324219 76.511719 195.308594 80.859375 C 194.210938 82.445312 193.011719 83.984375 192.109375 85.675781 C 189.710938 90.15625 187.394531 94.683594 185.160156 99.246094 C 184.238281 101.128906 183.59375 103.144531 182.851562 105.109375 C 181.976562 107.40625 181.023438 109.679688 180.296875 112.019531 C 178.3125 118.40625 176.914062 124.925781 176.121094 131.570312 C 175.472656 136.96875 174.53125 142.351562 174.214844 147.773438 C 173.949219 152.304688 174.34375 156.878906 174.585938 161.429688 C 174.632812 162.347656 175.3125 163.230469 175.691406 164.101562 C 176.527344 163.925781 177.0625 163.882812 177.550781 163.695312 C 187.796875 159.816406 197.484375 154.902344 206.199219 148.203125 C 209.402344 145.742188 212.546875 143.199219 215.734375 140.714844 C 221.582031 136.144531 226.742188 130.886719 231.355469 125.089844 C 238.738281 115.816406 243.65625 105.566406 244.335938 93.492188 C 244.6875 87.253906 243.875 81.21875 242.164062 75.285156 C 241.695312 73.667969 240.632812 72.117188 239.527344 70.800781 C 235.042969 65.449219 228.933594 63.570312 222.226562 63.128906 C 221.917969 63.109375 221.589844 63.367188 221 63.605469 C 220.878906 64.460938 220.8125 65.476562 220.578125 66.449219 C 220.140625 68.246094 218.429688 68.855469 216.9375 67.722656 C 216.121094 67.097656 215.445312 66.289062 214.621094 65.488281 Z M 115.160156 173.1875 C 116.570312 177.199219 118.882812 180.265625 121.605469 183.039062 C 125.542969 187.042969 129.453125 191.085938 133.542969 194.9375 C 138.40625 199.523438 143.6875 203.617188 149.355469 207.195312 C 150.847656 208.136719 152.222656 208.292969 153.808594 207.523438 C 158.066406 205.449219 162.347656 203.441406 166.71875 201.359375 C 169.988281 189.855469 171.234375 178.082031 170.953125 166.0625 C 170.804688 159.714844 170.433594 153.4375 169.21875 147.214844 C 169.019531 146.199219 168.960938 145.074219 167.734375 144.84375 C 166.871094 145.757812 166.175781 146.796875 165.210938 147.441406 C 164.054688 148.21875 162.59375 147.476562 162.371094 146.175781 C 162.132812 144.777344 161.929688 143.347656 163.015625 142.179688 C 164.015625 141.105469 165.296875 141.660156 166.488281 141.71875 C 166.609375 141.726562 166.734375 141.570312 167.085938 141.339844 C 166.890625 140.59375 166.746094 139.738281 166.449219 138.941406 C 163.097656 129.953125 158.085938 121.917969 151.929688 114.628906 C 148.113281 110.113281 143.171875 107 137.414062 105.46875 C 135.246094 104.894531 132.890625 104.578125 130.667969 104.742188 C 126.796875 105.03125 123.109375 106.234375 119.574219 107.910156 C 116.417969 109.402344 114.082031 111.664062 112.460938 114.695312 C 107.175781 124.597656 105.246094 135.207031 106.289062 146.292969 C 106.867188 152.417969 108.910156 158.28125 110.621094 164.175781 C 111.09375 165.804688 112.035156 167.296875 113.027344 169.421875 C 113.695312 168.394531 113.957031 167.816406 114.371094 167.382812 C 115.867188 165.808594 117.347656 165.703125 118.976562 166.988281 C 120.417969 168.121094 120.589844 169.941406 119.167969 171.027344 C 118.097656 171.84375 116.777344 172.335938 115.160156 173.1875 Z M 271.277344 63.707031 L 271.179688 63.84375 C 273.191406 62.691406 273.761719 60.746094 274.390625 58.660156 C 275.558594 54.777344 270.566406 46.210938 266.96875 45.117188 C 264.527344 44.378906 261.953125 43.6875 259.480469 45.742188 C 260.425781 47.375 261.648438 48.734375 261.078125 50.671875 C 260.480469 52.691406 258.832031 53.605469 257.066406 52.550781 C 256.234375 52.050781 255.558594 51.160156 255.035156 50.3125 C 254.621094 49.636719 254.542969 48.746094 254.308594 47.9375 C 245.753906 50.910156 240.320312 56.5625 238.800781 63.785156 C 240.265625 65.3125 241.917969 66.660156 243.085938 68.347656 C 244.414062 70.277344 245.984375 71.144531 248.304688 71.253906 C 256.945312 71.648438 264.523438 68.964844 271.277344 63.707031 Z M 172.269531 199.960938 C 177.324219 200.128906 181.707031 200.394531 186.09375 200.398438 C 193.789062 200.402344 201.101562 202.015625 208.148438 205.0625 C 215.148438 208.09375 220.578125 212.867188 224.816406 219.164062 C 227.582031 223.277344 229.992188 227.546875 231.761719 232.164062 C 232.453125 233.96875 233.277344 235.773438 233.625 237.65625 C 234.800781 244.046875 236.148438 250.4375 236.757812 256.894531 C 237.515625 264.933594 237.832031 273.023438 237.328125 281.121094 C 236.878906 288.359375 235.554688 295.445312 233.691406 302.417969 C 232.285156 307.683594 230.519531 312.859375 228.738281 318.015625 C 226.730469 323.835938 224.300781 329.484375 221.546875 335.019531 C 219.050781 340.046875 217.28125 345.433594 214.882812 350.515625 C 211.808594 357.039062 208.441406 363.425781 205.140625 369.839844 C 204.691406 370.710938 203.898438 371.402344 203.234375 372.210938 C 201.386719 371.023438 200.816406 369.773438 201.835938 368.066406 C 203.367188 365.492188 204.859375 362.898438 206.453125 360.367188 C 208.242188 357.53125 209.941406 354.667969 210.71875 351.351562 C 210.878906 350.675781 211.226562 350.042969 211.480469 349.382812 C 214.9375 340.363281 218.265625 331.292969 221.886719 322.335938 C 224.789062 315.160156 227.453125 307.914062 229.5 300.453125 C 230.191406 297.921875 230.695312 295.339844 231.261719 292.898438 C 230.769531 292.269531 230.445312 291.867188 230.132812 291.457031 C 228.285156 289.027344 228.253906 287.886719 230.648438 286.339844 C 231.851562 285.5625 232.390625 284.789062 232.53125 283.488281 C 232.988281 279.292969 233.75 275.109375 233.875 270.90625 C 233.996094 266.890625 233.617188 262.839844 233.203125 258.828125 C 232.097656 248.058594 228.953125 237.855469 224.25 228.074219 C 223.652344 227.992188 223.128906 227.792969 222.664062 227.886719 C 221.148438 228.199219 219.796875 228.070312 219.027344 226.558594 C 218.164062 224.851562 218.007812 223.191406 219.820312 221.886719 C 220.089844 221.695312 220.253906 221.351562 220.464844 221.078125 C 218.65625 215.96875 214.9375 212.578125 208.128906 209.835938 C 207.789062 209.890625 207.351562 209.832031 207.125 210.023438 C 204.210938 212.460938 203.097656 211.480469 201.695312 209.046875 C 200.683594 207.292969 199.238281 206.628906 197.519531 206.171875 C 196.332031 205.851562 195.121094 205.542969 193.90625 205.414062 C 189.886719 204.988281 185.863281 204.648438 181.558594 204.25 C 180.933594 205.257812 180.386719 206.324219 179.664062 207.257812 C 177.683594 209.8125 175.757812 209.570312 174.085938 206.609375 C 173.835938 206.160156 173.617188 205.695312 173.324219 205.125 C 171.003906 204.914062 168.839844 205.453125 166.738281 206.421875 C 164.339844 207.523438 161.785156 208.359375 159.539062 209.714844 C 152.894531 213.726562 146.644531 218.320312 141.609375 224.273438 C 138.894531 227.480469 136.703125 231.125 134.242188 234.542969 C 128.582031 242.398438 126.296875 251.210938 126.136719 260.8125 C 126.003906 268.96875 126.816406 276.945312 129.015625 284.796875 C 129.960938 288.171875 130.746094 291.59375 131.585938 294.996094 C 133.757812 303.828125 138.25 311.628906 142.699219 319.414062 C 148.101562 328.871094 153.78125 338.171875 159.378906 347.519531 C 161.277344 350.683594 163.273438 353.785156 165.261719 356.894531 C 165.722656 357.613281 166.339844 358.230469 166.835938 358.835938 C 168.253906 358.660156 167.945312 357.53125 168.28125 356.855469 C 169.105469 355.179688 170.035156 354.699219 171.554688 355.261719 C 173.152344 355.851562 173.574219 356.84375 173.460938 358.527344 C 173.277344 361.253906 171.140625 361.167969 168.992188 361.46875 C 170.1875 366.199219 174.855469 368.925781 175.734375 373.535156 C 173.734375 374.453125 172.882812 373.191406 171.78125 372.90625 C 170.773438 372.644531 169.761719 372.394531 168.777344 372.148438 C 165.839844 368.339844 162.839844 364.671875 160.09375 360.824219 C 158.257812 358.257812 156.808594 355.414062 155.128906 352.730469 C 150.09375 344.683594 144.824219 336.769531 140.027344 328.585938 C 134.15625 318.582031 128.65625 308.382812 124.789062 297.363281 C 121.179688 287.089844 120.089844 276.464844 119.609375 265.722656 C 119.527344 263.804688 119.90625 261.871094 120.015625 259.9375 C 120.082031 258.742188 120.042969 257.535156 120.054688 256.113281 C 119.007812 255.980469 118.160156 255.757812 117.316406 255.785156 C 108.980469 256.054688 100.761719 254.871094 92.707031 253.039062 C 85.03125 251.289062 78.324219 247.410156 73.125 241.277344 C 70.617188 238.3125 68.726562 234.984375 66.882812 231.582031 C 64.015625 226.277344 64.617188 221.003906 66.71875 215.804688 C 67.816406 213.089844 69.121094 210.367188 71.738281 208.507812 C 74.261719 206.714844 76.914062 205.648438 79.988281 205.335938 C 85.320312 204.789062 90.527344 205.8125 95.761719 206.410156 C 96.90625 206.539062 98.011719 207.355469 99.054688 207.984375 C 100.710938 208.984375 102.394531 209.976562 103.902344 211.179688 C 108.035156 214.464844 112.261719 217.664062 116.105469 221.261719 C 119.851562 224.773438 122.417969 229.234375 124.691406 233.835938 C 124.988281 234.4375 125.457031 234.957031 125.882812 235.492188 C 125.972656 235.597656 126.214844 235.582031 126.472656 235.640625 C 129.597656 231.261719 132.484375 226.636719 135.964844 222.515625 C 139.347656 218.511719 143.351562 215.03125 147.367188 211.035156 C 146.082031 210.246094 145.160156 209.464844 144.09375 209.058594 C 141.410156 208.042969 139.113281 206.488281 136.9375 204.652344 C 134.515625 202.609375 132.070312 200.558594 129.433594 198.808594 C 120.058594 192.59375 113.703125 183.785156 108.25 174.257812 C 106.078125 170.460938 104.527344 166.304688 102.832031 162.253906 C 101.246094 158.464844 100.589844 154.472656 100.953125 150.367188 C 101.480469 144.433594 100.902344 138.40625 102.554688 132.578125 C 102.0625 126.53125 104.464844 121.226562 106.847656 115.914062 C 107.132812 115.277344 107.226562 114.496094 107.652344 113.980469 C 112.605469 107.988281 117.601562 102.351562 126.046875 100.890625 C 133.359375 99.625 139.636719 101.804688 145.785156 104.960938 C 150.875 107.578125 154.78125 111.671875 158.324219 116.121094 C 162.304688 121.121094 165.128906 126.78125 167.953125 132.453125 C 168.726562 134.003906 169.542969 135.535156 170.65625 137.691406 C 171.296875 136.359375 171.800781 135.691406 171.949219 134.957031 C 172.5 132.195312 173.089844 129.429688 173.394531 126.636719 C 174.421875 117.265625 177.417969 108.449219 180.949219 99.800781 C 182.941406 94.921875 185.265625 90.175781 187.503906 85.398438 C 189.769531 80.566406 193.1875 76.523438 196.59375 72.480469 C 197.140625 71.828125 197.679688 71.167969 198.371094 70.332031 C 197.609375 69.03125 197.105469 67.667969 196.191406 66.683594 C 191.570312 61.703125 188.617188 55.683594 185.527344 49.765625 C 182.667969 44.292969 180.308594 38.585938 179.355469 32.433594 C 178.816406 28.96875 178.378906 25.46875 178.214844 21.96875 C 177.996094 17.25 179.753906 12.953125 181.960938 8.925781 C 184.757812 3.816406 195.59375 -0.300781 201.125 1.53125 C 204.226562 2.5625 206.511719 4.863281 208.546875 7.300781 C 211.292969 10.582031 213.078125 14.285156 213.8125 18.625 C 215.035156 25.839844 214.910156 33.011719 213.824219 40.167969 C 212.980469 45.726562 211.726562 51.222656 210.671875 56.75 C 210.378906 58.273438 210.140625 59.808594 209.808594 61.722656 C 211.238281 61.351562 212.3125 61.285156 213.160156 60.816406 C 217.097656 58.621094 221.199219 58.46875 225.457031 59.554688 C 227.667969 60.121094 229.882812 60.660156 232.269531 61.25 C 232.972656 60.476562 234.011719 59.820312 234.285156 58.933594 C 234.960938 56.738281 236.617188 55.429688 238.175781 54.046875 C 242.65625 50.078125 247.300781 46.316406 252.320312 43.023438 C 255.257812 41.09375 258.550781 40.507812 261.902344 40.535156 C 268.457031 40.585938 274.371094 42.539062 279.058594 47.367188 C 283.136719 51.5625 283.398438 57.125 279.613281 61.648438 C 275.453125 66.625 270.226562 70.097656 263.972656 71.953125 C 258.746094 73.507812 253.511719 75.039062 247.679688 75.027344 C 247.75 76.414062 247.691406 77.605469 247.886719 78.757812 C 250.144531 92.085938 247.507812 104.671875 241.808594 116.679688 C 240.324219 119.804688 238.0625 122.617188 235.847656 125.320312 C 231.722656 130.351562 227.652344 135.484375 223.019531 140.027344 C 219.28125 143.691406 214.800781 146.617188 210.558594 149.75 C 202.445312 155.734375 193.519531 160.296875 184.402344 164.53125 C 181.859375 165.714844 179.484375 167.273438 177.039062 168.664062 C 175.710938 169.421875 175.097656 170.542969 174.972656 172.097656 C 174.59375 176.828125 174.113281 181.546875 173.652344 186.265625 C 173.410156 188.714844 173.089844 191.152344 172.839844 193.601562 C 172.644531 195.5 172.496094 197.402344 172.269531 199.960938 " fill-opacity="1" fill-rule="nonzero"/></g><g clip-path="url(#id2)"><path fill="rgb(0%, 52.159119%, 36.468506%)" d="M 292.5 303.894531 C 298.3125 304.792969 304.058594 305.222656 309.726562 303.558594 C 313.25 302.523438 316.664062 301.097656 320.082031 299.738281 C 321.707031 299.089844 323.265625 298.253906 324.789062 297.386719 C 329 295 331.257812 291.054688 332.863281 286.714844 C 333.398438 285.285156 333.738281 283.644531 332.761719 282.140625 C 332.46875 281.957031 332.195312 281.734375 331.878906 281.601562 C 328.644531 280.242188 328.648438 280.25 330.015625 277.210938 C 330.226562 276.753906 330.332031 276.25 330.523438 275.652344 C 329.691406 274.960938 328.980469 274.125 328.074219 273.652344 C 323.246094 271.125 318.449219 270.523438 313.808594 274.160156 C 312.152344 275.453125 310.359375 276.582031 308.769531 277.953125 C 304.527344 281.605469 299.851562 284.835938 297 289.867188 C 295.621094 292.308594 294.183594 294.714844 292.789062 297.148438 C 291.6875 299.070312 291.40625 301.078125 292.5 303.894531 Z M 285.136719 212.453125 C 286.65625 210.121094 286.808594 207.457031 286.882812 204.878906 C 287.082031 198 286.523438 191.164062 284.296875 184.609375 C 282.199219 178.425781 279.339844 172.640625 274.285156 168.210938 C 271.492188 165.761719 268.386719 164.539062 264.386719 165.234375 C 264.507812 166.386719 264.699219 167.386719 264.703125 168.386719 C 264.714844 170.03125 263.644531 170.9375 262.226562 171.414062 C 260.851562 171.875 259.855469 171.296875 259.195312 170.039062 C 258.886719 169.453125 258.507812 168.910156 258.152344 168.324219 C 255.386719 170.347656 255.265625 170.421875 254.808594 172.871094 C 254.027344 177.101562 254.371094 181.191406 256.449219 185.027344 C 257.164062 185.082031 257.683594 185.101562 258.195312 185.164062 C 262.695312 185.722656 263.472656 187.269531 261.347656 191.390625 C 261.191406 191.6875 261.136719 192.042969 261.019531 192.417969 C 261.570312 194.121094 262.804688 195.289062 264.109375 196.503906 C 267.960938 200.09375 271.738281 203.765625 275.441406 207.5 C 278.113281 210.195312 281.109375 212.085938 285.136719 212.453125 Z M 295.882812 212.765625 C 295.402344 213.941406 295.148438 214.773438 294.730469 215.523438 C 293.960938 216.921875 293.109375 217.457031 291.734375 216.691406 C 289.03125 215.167969 287.035156 216.28125 285.039062 217.902344 C 280.199219 221.816406 276.554688 226.761719 273.277344 231.953125 C 270.253906 236.746094 268.441406 242.113281 266.898438 247.527344 C 265.296875 253.152344 264.886719 258.917969 265.378906 264.761719 C 265.621094 267.664062 266.707031 270.128906 268.484375 272.5625 C 273.324219 271.609375 277.425781 273.921875 281.6875 275.464844 C 288.1875 271.242188 294.183594 266.820312 298.210938 260.109375 C 297.613281 259.632812 297.21875 259.308594 296.8125 258.992188 C 296.273438 258.574219 295.722656 258.164062 295.070312 257.667969 C 295.375 256.382812 295.492188 255.140625 295.96875 254.054688 C 296.796875 252.171875 298.867188 252.210938 300.078125 254.054688 C 300.496094 254.6875 300.15625 255.910156 301.445312 255.863281 C 308.738281 248.464844 311.613281 239.300781 312.578125 229.367188 C 312.011719 229.117188 311.695312 228.859375 311.375 228.851562 C 309.679688 228.808594 308.847656 227.921875 308.585938 226.296875 C 308.351562 224.855469 309.03125 223.992188 310.15625 223.253906 C 310.84375 222.808594 311.445312 222.222656 311.910156 221.84375 C 311.425781 217.910156 309.140625 215.96875 306.046875 214.59375 C 302.917969 213.210938 299.664062 212.832031 295.882812 212.765625 Z M 284.648438 277.714844 C 286.886719 282.40625 288.84375 286.5 290.859375 290.714844 C 291.808594 291.039062 292.242188 290.238281 292.675781 289.480469 C 295.777344 284.101562 299.710938 279.355469 304.203125 275.121094 C 306.621094 272.84375 309.265625 270.71875 312.085938 268.972656 C 316.847656 266.027344 325.429688 264.523438 331.71875 270.496094 C 333.476562 272.167969 335.605469 273.445312 336.664062 275.882812 C 338.503906 280.132812 337.980469 284.234375 335.945312 288.078125 C 334.230469 291.324219 332.164062 294.457031 329.824219 297.289062 C 327.59375 299.980469 324.910156 302.265625 321.375 303.398438 C 317.695312 304.574219 314.125 306.089844 310.503906 307.4375 C 308.144531 308.3125 305.722656 308.492188 303.214844 308.246094 C 299.539062 307.886719 295.851562 307.667969 291.875 307.367188 C 291.546875 308.285156 291.058594 309.199219 290.894531 310.164062 C 289.824219 316.457031 287.910156 322.460938 285.074219 328.1875 C 284.214844 329.910156 283.636719 331.777344 282.9375 333.582031 C 278.972656 343.777344 273.492188 353.242188 268.539062 362.957031 C 266.960938 366.058594 264.875 368.957031 262.6875 371.679688 C 261.417969 373.261719 259.367188 373.46875 257.054688 372.496094 C 257.230469 371.628906 257.179688 370.699219 257.59375 370.082031 C 258.765625 368.332031 260.101562 366.683594 261.417969 365.03125 C 268.621094 356 273.527344 345.675781 278.21875 335.230469 C 280.015625 331.226562 281.785156 327.207031 283.617188 323.078125 C 282.996094 322.4375 282.609375 321.84375 282.0625 321.503906 C 280.515625 320.539062 280.742188 319.144531 281.066406 317.757812 C 281.394531 316.363281 282.445312 315.800781 283.808594 315.742188 C 284.472656 315.710938 285.140625 315.707031 285.71875 315.691406 C 288.050781 309.101562 287.984375 296.039062 285.917969 290.050781 C 283.648438 283.496094 279.179688 279.980469 272.273438 279.492188 C 266.628906 279.09375 261.394531 280.121094 256.945312 283.882812 C 255.339844 285.234375 253.75 286.601562 252.140625 287.972656 C 252.1875 289.21875 252.300781 290.253906 252.25 291.285156 C 252.121094 293.980469 251.214844 294.78125 248.261719 294.925781 C 247.914062 294.945312 247.5625 294.835938 247.210938 294.835938 C 247.050781 294.839844 246.894531 294.96875 246.210938 295.285156 C 245.550781 296.582031 244.601562 298.246094 243.832031 299.992188 C 241.265625 305.820312 239.378906 311.894531 238.707031 318.210938 C 237.933594 325.546875 237.089844 332.941406 237.246094 340.289062 C 237.445312 349.941406 238.367188 359.605469 242.070312 368.742188 C 242.503906 369.8125 242.476562 371.105469 242.476562 372.296875 C 242.476562 372.644531 241.890625 373.171875 241.480469 373.296875 C 241.050781 373.429688 240.382812 373.320312 240.039062 373.046875 C 239.515625 372.628906 239.035156 372.027344 238.789062 371.40625 C 237.949219 369.285156 237.15625 367.140625 236.453125 364.96875 C 233.226562 354.988281 232.113281 344.640625 232.402344 334.265625 C 232.621094 326.402344 233.359375 318.457031 235.992188 310.882812 C 237.671875 306.0625 239.191406 301.191406 240.917969 296.394531 C 243.542969 289.101562 247.976562 283.027344 253.910156 278.089844 C 255.222656 277 256.929688 276.34375 258.523438 275.632812 C 260.082031 274.933594 261.726562 274.421875 263.605469 273.726562 C 260.195312 263.09375 259.964844 252.785156 263.570312 242.441406 C 267.035156 232.488281 271.886719 223.476562 280.488281 216.421875 C 279.59375 215.628906 278.984375 215.085938 278.371094 214.550781 C 275.050781 211.65625 271.703125 208.800781 268.421875 205.875 C 265.925781 203.648438 263.449219 201.394531 261.074219 199.046875 C 255.179688 193.214844 250.589844 186.652344 250.1875 178.015625 C 250.089844 175.941406 250.203125 173.738281 250.808594 171.773438 C 252.296875 166.945312 255.289062 163.441406 260.566406 162.460938 C 268.261719 161.027344 274.976562 162.621094 279.867188 169.121094 C 283.90625 174.488281 287.304688 180.269531 289.109375 186.789062 C 290.804688 192.929688 291.265625 199.242188 290.882812 205.613281 C 290.8125 206.792969 290.882812 207.984375 290.886719 209.539062 C 292.746094 209.324219 294.28125 209.21875 295.792969 208.964844 C 300.898438 208.105469 305.640625 209.34375 310.054688 211.726562 C 312.910156 213.265625 314.738281 215.949219 316.097656 218.859375 C 317.625 222.121094 318.230469 225.589844 317.636719 229.152344 C 315.980469 239.148438 312.671875 248.566406 306.980469 257.007812 C 303.125 262.734375 298 267.382812 293.160156 272.238281 C 291.699219 273.703125 289.6875 274.621094 287.90625 275.761719 C 286.894531 276.410156 285.839844 277 284.648438 277.714844 " fill-opacity="1" fill-rule="nonzero"/></g><path fill="rgb(0%, 52.159119%, 36.468506%)" d="M 160.769531 334.609375 C 161.445312 336.90625 160.683594 338.816406 158.902344 339.277344 C 157.167969 339.722656 155.289062 339.085938 154.84375 337.902344 C 154.1875 336.171875 155.429688 333.296875 157.101562 332.6875 C 158.566406 332.15625 160.3125 333.070312 160.769531 334.609375 " fill-opacity="1" fill-rule="nonzero"/><path fill="rgb(0%, 52.159119%, 36.468506%)" d="M 251.066406 357.589844 C 250.777344 355.644531 250.957031 354.140625 251.945312 352.824219 C 252.75 351.757812 254.761719 351.824219 255.601562 352.90625 C 256.804688 354.464844 256.863281 356.609375 255.511719 358.101562 C 255.019531 358.648438 253.980469 359.152344 253.332031 359.015625 C 252.441406 358.828125 251.6875 358.007812 251.066406 357.589844 " fill-opacity="1" fill-rule="nonzero"/><path fill="rgb(0%, 52.159119%, 36.468506%)" d="M 143.746094 293.496094 C 143.277344 292.28125 144.308594 290.515625 145.941406 289.734375 C 147.199219 289.140625 149.003906 289.804688 149.503906 291.050781 C 150.242188 292.878906 149.539062 295.140625 148.097656 295.574219 C 146.472656 296.070312 144.355469 295.054688 143.746094 293.496094 " fill-opacity="1" fill-rule="nonzero"/><path fill="rgb(0%, 52.159119%, 36.468506%)" d="M 187.628906 227.375 C 187.796875 226.921875 187.96875 225.6875 188.628906 224.839844 C 189.488281 223.730469 190.902344 224.09375 191.9375 224.660156 C 192.5625 225.003906 193.054688 225.878906 193.253906 226.613281 C 193.414062 227.199219 193.128906 227.96875 192.875 228.585938 C 192.417969 229.710938 191.800781 230.789062 190.378906 230.84375 C 189.125 230.890625 188.117188 229.777344 187.628906 227.375 " fill-opacity="1" fill-rule="nonzero"/><path fill="rgb(0%, 52.159119%, 36.468506%)" d="M 193.71875 265.929688 C 194.0625 267.75 192.644531 269.757812 190.722656 270.183594 C 189.339844 270.488281 187.800781 269.566406 187.476562 268.238281 C 187.027344 266.398438 188.464844 264.332031 190.410156 264.027344 C 191.8125 263.808594 193.503906 264.777344 193.71875 265.929688 " fill-opacity="1" fill-rule="nonzero"/><path fill="rgb(0%, 52.159119%, 36.468506%)" d="M 165.953125 316.773438 C 164.84375 317.082031 163.34375 316.261719 162.550781 314.910156 C 161.832031 313.683594 162.121094 311.914062 163.152344 311.167969 C 164.101562 310.492188 165.71875 310.453125 166.5625 311.089844 C 168.089844 312.238281 168 315.4375 166.40625 316.558594 C 166.273438 316.65625 166.105469 316.703125 165.953125 316.773438 " fill-opacity="1" fill-rule="nonzero"/><path fill="rgb(0%, 52.159119%, 36.468506%)" d="M 265.199219 336.15625 C 264.492188 334.148438 266.574219 331.351562 268.730469 331.414062 C 268.902344 331.421875 269.074219 331.472656 269.238281 331.523438 C 270.273438 331.859375 270.914062 333.085938 270.792969 334.503906 C 270.644531 336.34375 269.523438 337.777344 268.140625 337.902344 C 266.984375 338.007812 265.546875 337.152344 265.199219 336.15625 " fill-opacity="1" fill-rule="nonzero"/><path fill="rgb(0%, 52.159119%, 36.468506%)" d="M 135.472656 263.210938 C 136.003906 265.132812 135.101562 267.082031 133.492188 267.5 C 132.066406 267.863281 130.328125 266.8125 129.773438 265.253906 C 129.1875 263.601562 130.300781 261.8125 132.238281 261.289062 C 133.679688 260.894531 135.0625 261.71875 135.472656 263.210938 " fill-opacity="1" fill-rule="nonzero"/><path fill="rgb(0%, 52.159119%, 36.468506%)" d="M 183.605469 335.839844 C 183.933594 337.3125 182.75 339.191406 181.324219 339.460938 C 179.933594 339.726562 178.199219 338.75 177.992188 337.585938 C 177.699219 335.917969 178.828125 333.675781 180.183594 333.238281 C 181.320312 332.871094 183.277344 334.355469 183.605469 335.839844 " fill-opacity="1" fill-rule="nonzero"/><path fill="rgb(0%, 52.159119%, 36.468506%)" d="M 147.679688 243.339844 C 147.703125 243.65625 147.816406 244.183594 147.765625 244.695312 C 147.613281 246.230469 145.933594 247.554688 144.449219 247.371094 C 143.128906 247.207031 142.253906 245.859375 142.40625 244.214844 C 142.441406 243.867188 142.46875 243.515625 142.558594 243.179688 C 142.917969 241.828125 144 240.851562 145.078125 240.875 C 146.207031 240.902344 147.273438 241.847656 147.679688 243.339844 " fill-opacity="1" fill-rule="nonzero"/><path fill="rgb(0%, 52.159119%, 36.468506%)" d="M 245.53125 336.347656 C 244.042969 336.8125 242.367188 335.976562 241.746094 334.460938 C 241.1875 333.101562 242.304688 331.203125 243.84375 330.894531 C 245.25 330.613281 246.902344 331.660156 247.453125 333.191406 C 247.886719 334.375 246.953125 335.902344 245.53125 336.347656 " fill-opacity="1" fill-rule="nonzero"/><path fill="rgb(0%, 52.159119%, 36.468506%)" d="M 162.390625 266.007812 C 162.792969 267.4375 162.023438 268.757812 160.535156 269.191406 C 158.742188 269.714844 156.964844 268.753906 156.449219 266.992188 C 156.054688 265.652344 157.304688 263.941406 158.933594 263.574219 C 160.402344 263.246094 161.910156 264.304688 162.390625 266.007812 " fill-opacity="1" fill-rule="nonzero"/><path fill="rgb(0%, 52.159119%, 36.468506%)" d="M 209.1875 245.378906 C 209.554688 247.082031 208.433594 249.550781 206.960938 250.167969 C 206.675781 250.289062 206.265625 250.257812 205.960938 250.160156 C 204.867188 249.824219 204.195312 249.078125 204.242188 247.910156 C 204.292969 246.578125 204.078125 245.082031 205.71875 244.40625 C 206.710938 243.996094 207.710938 243.839844 208.632812 244.546875 C 208.886719 244.734375 209.007812 245.097656 209.1875 245.378906 " fill-opacity="1" fill-rule="nonzero"/><path fill="rgb(0%, 52.159119%, 36.468506%)" d="M 190.839844 314.484375 C 189.886719 314.777344 188.628906 313.992188 188.46875 313.003906 C 188.152344 311.011719 189.121094 309.132812 191.046875 308.429688 C 191.53125 308.25 192.53125 308.53125 192.835938 308.941406 C 194.144531 310.691406 192.949219 313.835938 190.839844 314.484375 " fill-opacity="1" fill-rule="nonzero"/><path fill="rgb(0%, 52.159119%, 36.468506%)" d="M 269.246094 299.03125 C 268.746094 297.238281 269.820312 295.433594 271.578125 295.125 C 272.710938 294.925781 274.0625 295.789062 274.378906 296.917969 C 274.855469 298.632812 273.855469 300.644531 272.300781 301.105469 C 271.023438 301.488281 269.675781 300.574219 269.246094 299.03125 " fill-opacity="1" fill-rule="nonzero"/><path fill="rgb(0%, 52.159119%, 36.468506%)" d="M 195.007812 360.308594 C 193.699219 360.566406 192.320312 359.472656 192.070312 357.96875 C 191.777344 356.183594 192.660156 354.65625 194.183594 354.3125 C 195.414062 354.03125 196.667969 354.816406 196.984375 356.0625 C 197.46875 358 196.535156 360.003906 195.007812 360.308594 " fill-opacity="1" fill-rule="nonzero"/><path fill="rgb(0%, 52.159119%, 36.468506%)" d="M 206.273438 339.242188 C 205.019531 339.613281 203.507812 339.011719 203.140625 338.007812 C 202.511719 336.273438 203.441406 334.417969 205.246094 333.792969 C 206.722656 333.28125 208.296875 333.9375 208.746094 335.25 C 209.316406 336.914062 208.230469 338.667969 206.273438 339.242188 " fill-opacity="1" fill-rule="nonzero"/><path fill="rgb(0%, 52.159119%, 36.468506%)" d="M 179.414062 248.265625 C 178.847656 249.292969 178.550781 250.132812 178.007812 250.761719 C 176.894531 252.058594 175.472656 252.207031 174.367188 251.304688 C 173.019531 250.214844 172.441406 247.699219 173.515625 246.710938 C 174.046875 246.222656 175.203125 245.925781 175.859375 246.160156 C 177.09375 246.605469 178.171875 247.496094 179.414062 248.265625 " fill-opacity="1" fill-rule="nonzero"/><path fill="rgb(0%, 52.159119%, 36.468506%)" d="M 173.449219 289.480469 C 173.046875 289.246094 172.210938 288.957031 171.703125 288.378906 C 171.285156 287.910156 171.144531 287.105469 171.074219 286.429688 C 170.929688 284.984375 171.703125 283.75 172.773438 283.496094 C 174.214844 283.164062 175.835938 284.519531 176.019531 286.210938 C 176.191406 287.785156 175.332031 289.074219 173.449219 289.480469 " fill-opacity="1" fill-rule="nonzero"/><path fill="rgb(0%, 52.159119%, 36.468506%)" d="M 219.777344 316.515625 C 219.445312 316.410156 218.894531 316.355469 218.488281 316.085938 C 217.261719 315.28125 216.96875 313.875 217.613281 312.386719 C 218.238281 310.957031 219.566406 310.222656 220.964844 310.589844 C 221.285156 310.675781 221.621094 310.859375 221.851562 311.089844 C 222.703125 311.933594 222.640625 312.953125 222.308594 313.992188 C 221.925781 315.191406 221.371094 316.246094 219.777344 316.515625 " fill-opacity="1" fill-rule="nonzero"/><path fill="rgb(0%, 52.159119%, 36.468506%)" d="M 220.203125 268.792969 C 218.953125 269.066406 217.328125 268.0625 216.898438 266.753906 C 216.390625 265.203125 217.40625 263.714844 219.246094 263.324219 C 220.699219 263.015625 222.046875 263.550781 222.371094 264.570312 C 222.898438 266.234375 221.761719 268.453125 220.203125 268.792969 " fill-opacity="1" fill-rule="nonzero"/><path fill="rgb(0%, 52.159119%, 36.468506%)" d="M 208.28125 290.84375 C 207.109375 290.394531 206.25 290.203125 205.539062 289.761719 C 204.101562 288.871094 203.808594 287.558594 204.691406 286.195312 C 205.265625 285.320312 206.011719 284.34375 207.183594 284.757812 C 207.898438 285.011719 208.574219 285.765625 208.964844 286.460938 C 209.566406 287.527344 209.453125 287.585938 208.28125 290.84375 " fill-opacity="1" fill-rule="nonzero"/><path fill="rgb(0%, 52.159119%, 36.468506%)" d="M 260.148438 317.421875 C 260.5625 319.238281 260.042969 320.523438 258.753906 320.878906 C 257.066406 321.339844 255.4375 320.390625 255.167969 318.785156 C 254.90625 317.210938 256.027344 315.632812 257.632812 315.324219 C 258.785156 315.101562 259.820312 315.964844 260.148438 317.421875 " fill-opacity="1" fill-rule="nonzero"/><path fill="rgb(0%, 52.159119%, 36.468506%)" d="M 163.851562 232.257812 C 162.523438 232.683594 160.910156 231.773438 160.621094 230.441406 C 160.285156 228.90625 161.246094 227.390625 162.886719 226.867188 C 164.066406 226.496094 165.332031 227.230469 165.691406 228.492188 C 166.160156 230.152344 165.367188 231.773438 163.851562 232.257812 " fill-opacity="1" fill-rule="nonzero"/><path fill="rgb(0%, 52.159119%, 36.468506%)" d="M 143 160.652344 C 141.46875 161.1875 139.273438 159.726562 139.136719 157.984375 C 139.015625 156.472656 139.617188 155.230469 140.976562 154.457031 C 141.265625 154.292969 141.648438 154.222656 141.984375 154.238281 C 143.164062 154.300781 144.523438 156.023438 144.765625 157.699219 C 144.929688 158.84375 144.070312 160.277344 143 160.652344 " fill-opacity="1" fill-rule="nonzero"/><path fill="rgb(0%, 52.159119%, 36.468506%)" d="M 132.792969 119.359375 C 131.574219 118.902344 130.3125 118.808594 129.839844 118.152344 C 129.191406 117.253906 128.910156 115.921875 128.90625 114.777344 C 128.898438 113.023438 130.683594 112.191406 132.324219 112.929688 C 133.894531 113.640625 134.117188 115.070312 134.050781 116.429688 C 134.007812 117.335938 133.316406 118.207031 132.792969 119.359375 " fill-opacity="1" fill-rule="nonzero"/><path fill="rgb(0%, 52.159119%, 36.468506%)" d="M 151.507812 128.910156 C 152.097656 130.765625 151.015625 133.214844 149.386719 133.707031 C 148.03125 134.113281 146.78125 133.308594 146.226562 131.683594 C 145.613281 129.871094 146.453125 128.308594 148.421875 127.585938 C 149.535156 127.183594 151.179688 127.886719 151.507812 128.910156 " fill-opacity="1" fill-rule="nonzero"/><path fill="rgb(0%, 52.159119%, 36.468506%)" d="M 153.824219 192.871094 C 152.410156 193.179688 150.902344 192.195312 150.738281 190.855469 C 150.507812 188.960938 151.648438 187.085938 153.171875 186.855469 C 154.570312 186.648438 155.980469 187.601562 156.285156 188.960938 C 156.675781 190.722656 155.5625 192.492188 153.824219 192.871094 " fill-opacity="1" fill-rule="nonzero"/><path fill="rgb(0%, 52.159119%, 36.468506%)" d="M 124.328125 144.332031 C 122.6875 144.75 121.132812 143.804688 120.820312 142.195312 C 120.519531 140.648438 121.425781 138.878906 122.785156 138.382812 C 124.398438 137.789062 126.195312 138.960938 126.582031 140.859375 C 126.921875 142.546875 126.046875 143.898438 124.328125 144.332031 " fill-opacity="1" fill-rule="nonzero"/><path fill="rgb(0%, 52.159119%, 36.468506%)" d="M 137.949219 177.152344 C 138.492188 179.003906 137.574219 180.828125 135.839844 181.355469 C 134.609375 181.726562 133.140625 181.035156 132.828125 179.941406 C 132.238281 177.890625 132.964844 176.03125 134.539062 175.5625 C 136.078125 175.113281 137.550781 175.800781 137.949219 177.152344 " fill-opacity="1" fill-rule="nonzero"/><path fill="rgb(0%, 52.159119%, 36.468506%)" d="M 158.507812 170.347656 C 157.164062 170.679688 155.996094 170.066406 155.636719 168.839844 C 155.164062 167.242188 156.078125 165.5625 157.613281 165.195312 C 158.90625 164.886719 160.289062 165.871094 160.664062 167.363281 C 161.003906 168.730469 160.125 169.949219 158.507812 170.347656 " fill-opacity="1" fill-rule="nonzero"/><path fill="rgb(0%, 52.159119%, 36.468506%)" d="M 207.292969 86.941406 C 206.199219 87.089844 205.515625 87.207031 204.832031 87.265625 C 203.515625 87.375 202.367188 87.082031 201.804688 85.730469 C 201.140625 84.144531 201.238281 82.644531 202.472656 81.351562 C 203.53125 80.238281 204.859375 79.898438 206.320312 80.28125 C 207.492188 80.585938 208.445312 82.230469 208.320312 83.609375 C 208.289062 83.949219 208.132812 84.28125 208.027344 84.617188 C 207.824219 85.269531 207.613281 85.925781 207.292969 86.941406 " fill-opacity="1" fill-rule="nonzero"/><path fill="rgb(0%, 52.159119%, 36.468506%)" d="M 232.277344 118.441406 C 230.566406 118.902344 229.160156 117.574219 229.519531 115.828125 C 229.585938 115.492188 229.664062 115.148438 229.796875 114.839844 C 230.5625 113.054688 231.773438 112.226562 233.292969 112.4375 C 234.242188 112.5625 234.964844 113.066406 235.035156 114.035156 C 235.1875 116.242188 234.054688 117.96875 232.277344 118.441406 " fill-opacity="1" fill-rule="nonzero"/><path fill="rgb(0%, 52.159119%, 36.468506%)" d="M 191.898438 135.445312 C 191.082031 135.136719 190.351562 135.039062 189.871094 134.640625 C 188.066406 133.132812 188.515625 130.019531 190.714844 129.007812 C 191.25 128.757812 192.21875 128.820312 192.679688 129.15625 C 193.921875 130.070312 194.152344 131.539062 193.71875 132.894531 C 193.429688 133.789062 192.597656 134.503906 191.898438 135.445312 " fill-opacity="1" fill-rule="nonzero"/><path fill="rgb(0%, 52.159119%, 36.468506%)" d="M 214.921875 133.109375 C 215.175781 135.304688 212.832031 137.15625 210.777344 136.515625 C 210.476562 136.421875 210.183594 136.152344 210 135.882812 C 209.332031 134.921875 209.734375 133.171875 210.808594 132.179688 C 211.71875 131.335938 213.152344 131.21875 214.117188 132.003906 C 214.492188 132.3125 214.710938 132.808594 214.921875 133.109375 " fill-opacity="1" fill-rule="nonzero"/><path fill="rgb(0%, 52.159119%, 36.468506%)" d="M 212.328125 111.894531 C 211.246094 112.191406 209.84375 111.328125 209.523438 110.167969 C 209.089844 108.613281 209.953125 106.976562 211.492188 106.453125 C 212.570312 106.078125 213.835938 106.890625 214.234375 108.199219 C 214.722656 109.8125 213.871094 111.46875 212.328125 111.894531 " fill-opacity="1" fill-rule="nonzero"/><path fill="rgb(0%, 52.159119%, 36.468506%)" d="M 228.613281 89.320312 C 227.933594 88.855469 227.058594 88.535156 226.636719 87.90625 C 225.722656 86.546875 225.882812 84.863281 227.011719 84.132812 C 227.648438 83.722656 228.613281 83.757812 229.4375 83.722656 C 229.699219 83.710938 230.117188 84.066406 230.230469 84.347656 C 230.769531 85.679688 230.851562 87.054688 230.046875 88.304688 C 229.796875 88.699219 229.238281 88.890625 228.613281 89.320312 " fill-opacity="1" fill-rule="nonzero"/><path fill="rgb(0%, 52.159119%, 36.468506%)" d="M 192.164062 105.238281 C 192.582031 106.925781 191.996094 108.816406 190.84375 109.269531 C 190.164062 109.542969 189.074219 109.441406 188.453125 109.050781 C 187.304688 108.339844 187.078125 106.636719 187.945312 105.300781 C 188.363281 104.652344 189.316406 103.863281 189.933594 103.9375 C 190.808594 104.042969 191.597656 104.878906 192.164062 105.238281 " fill-opacity="1" fill-rule="nonzero"/><path fill="rgb(0%, 52.159119%, 36.468506%)" d="M 189.058594 153.203125 C 187.953125 153.5625 186.542969 152.835938 186.109375 151.683594 C 185.644531 150.445312 186.523438 148.742188 187.828125 148.351562 C 188.910156 148.023438 190.449219 148.808594 190.808594 149.867188 C 191.238281 151.132812 190.371094 152.78125 189.058594 153.203125 " fill-opacity="1" fill-rule="nonzero"/><path fill="rgb(0%, 52.159119%, 36.468506%)" d="M 102.347656 227.09375 C 100.9375 227.34375 99.667969 226.378906 99.414062 224.871094 C 99.152344 223.324219 99.949219 221.804688 101.15625 221.554688 C 102.628906 221.246094 104.355469 222.519531 104.507812 224.019531 C 104.648438 225.421875 103.628906 226.867188 102.347656 227.09375 " fill-opacity="1" fill-rule="nonzero"/><path fill="rgb(0%, 52.159119%, 36.468506%)" d="M 85.59375 238.0625 C 83.929688 238.472656 82.503906 237.492188 82.15625 235.703125 C 81.917969 234.46875 83.097656 233.003906 84.535156 232.742188 C 85.800781 232.515625 87.152344 233.496094 87.664062 235.011719 C 88.128906 236.378906 87.265625 237.652344 85.59375 238.0625 " fill-opacity="1" fill-rule="nonzero"/><path fill="rgb(0%, 52.159119%, 36.468506%)" d="M 108.175781 247.78125 C 105.800781 248.53125 104.253906 247.914062 103.917969 246.417969 C 103.613281 245.0625 104.128906 243.683594 105.082031 243.296875 C 106.707031 242.636719 108.75 243.664062 108.988281 245.511719 C 109.085938 246.3125 108.394531 247.214844 108.175781 247.78125 " fill-opacity="1" fill-rule="nonzero"/><path fill="rgb(0%, 52.159119%, 36.468506%)" d="M 193.859375 33.304688 C 191.945312 33.683594 190.367188 32.917969 190.082031 31.472656 C 189.78125 29.925781 191.265625 27.859375 192.839844 27.632812 C 194.121094 27.449219 195.347656 28.542969 195.660156 30.132812 C 195.996094 31.875 195.355469 33.007812 193.859375 33.304688 " fill-opacity="1" fill-rule="nonzero"/><path fill="rgb(0%, 52.159119%, 36.468506%)" d="M 271.277344 63.707031 C 270.324219 63.296875 269.253906 63.035156 268.457031 62.425781 C 267.835938 61.949219 267.339844 61.085938 267.160156 60.304688 C 266.921875 59.285156 267.136719 58.230469 268.339844 57.734375 C 269.535156 57.234375 270.824219 57.699219 271.457031 58.820312 C 272.4375 60.558594 271.675781 62.179688 271.183594 63.835938 C 271.179688 63.84375 271.277344 63.707031 271.277344 63.707031 " fill-opacity="1" fill-rule="nonzero"/><path fill="rgb(0%, 52.159119%, 36.468506%)" d="M 247.789062 66.066406 C 247.304688 65.679688 246.257812 65.242188 245.894531 64.480469 C 245.28125 63.214844 246.304688 61.742188 247.769531 61.3125 C 248.804688 61.007812 249.972656 61.703125 250.15625 62.738281 C 250.433594 64.273438 249.589844 65.71875 247.789062 66.066406 " fill-opacity="1" fill-rule="nonzero"/><path fill="rgb(0%, 52.159119%, 36.468506%)" d="M 290.21875 239.175781 C 290.511719 238.132812 290.539062 237.140625 291.035156 236.539062 C 291.507812 235.972656 292.460938 235.578125 293.230469 235.527344 C 294.277344 235.457031 295.148438 236.554688 295.097656 237.648438 C 295.066406 238.324219 295.003906 239.140625 294.617188 239.625 C 294.125 240.242188 293.1875 241.058594 292.628906 240.933594 C 291.765625 240.75 291.0625 239.839844 290.21875 239.175781 " fill-opacity="1" fill-rule="nonzero"/><path fill="rgb(0%, 52.159119%, 36.468506%)" d="M 276.730469 248.875 C 275.511719 249.191406 274.019531 248.164062 273.625 246.738281 C 273.230469 245.3125 274.121094 243.964844 275.632812 243.699219 C 276.933594 243.46875 277.902344 244.132812 278.328125 245.535156 C 278.785156 247.03125 278.066406 248.53125 276.730469 248.875 " fill-opacity="1" fill-rule="nonzero"/><path fill="rgb(0%, 52.159119%, 36.468506%)" d="M 281.960938 264.058594 C 282.652344 265.964844 281.972656 267.824219 280.660156 268.4375 C 279.734375 268.875 278.34375 268.496094 277.941406 267.707031 C 277.164062 266.171875 277.902344 263.871094 279.53125 263.488281 C 280.324219 263.300781 281.304688 263.886719 281.960938 264.058594 " fill-opacity="1" fill-rule="nonzero"/><path fill="rgb(0%, 52.159119%, 36.468506%)" d="M 279.582031 204.253906 C 277.898438 204.742188 276.484375 203.917969 276.03125 202.171875 C 275.683594 200.839844 276.402344 199.613281 277.667969 199.382812 C 279.039062 199.128906 280.457031 199.957031 280.976562 201.324219 C 281.445312 202.546875 280.804688 203.894531 279.582031 204.253906 " fill-opacity="1" fill-rule="nonzero"/><path fill="rgb(0%, 52.159119%, 36.468506%)" d="M 276.742188 180 C 276.34375 178.300781 277.019531 176.734375 278.199219 176.609375 C 279.574219 176.46875 280.710938 177.535156 280.910156 179.152344 C 281.082031 180.558594 280.355469 181.878906 279.320312 182.046875 C 278.191406 182.230469 277.050781 181.324219 276.742188 180 " fill-opacity="1" fill-rule="nonzero"/><path fill="rgb(0%, 52.159119%, 36.468506%)" d="M 314.003906 282.199219 C 313.023438 282.492188 311.957031 281.789062 311.710938 280.6875 C 311.292969 278.839844 311.863281 277.132812 313.0625 276.644531 C 314.273438 276.148438 316.007812 276.992188 316.394531 278.261719 C 316.914062 279.960938 315.894531 281.636719 314.003906 282.199219 " fill-opacity="1" fill-rule="nonzero"/><path fill="rgb(0%, 52.159119%, 36.468506%)" d="M 324.644531 293.695312 C 324.925781 295.109375 323.570312 296.738281 321.964844 296.914062 C 321.027344 297.015625 320 296.175781 319.761719 295.117188 C 319.386719 293.402344 320.421875 291.789062 321.972656 291.675781 C 323.0625 291.59375 324.429688 292.628906 324.644531 293.695312 " fill-opacity="1" fill-rule="nonzero"/><path fill="rgb(0%, 52.159119%, 36.468506%)" d="M 306.453125 300.042969 C 305.65625 299.714844 304.878906 299.625 304.773438 299.308594 C 304.453125 298.363281 304.144531 297.292969 304.296875 296.34375 C 304.480469 295.214844 305.539062 294.707031 306.683594 294.625 C 308.300781 294.507812 309.488281 296.03125 308.707031 297.375 C 308.128906 298.375 307.207031 299.171875 306.453125 300.042969 " fill-opacity="1" fill-rule="nonzero"/></svg>