<svg xmlns="http://www.w3.org/2000/svg" xmlns:xlink="http://www.w3.org/1999/xlink" width="500" zoomAndPan="magnify" viewBox="0 0 375 374.999991" height="500" preserveAspectRatio="xMidYMid meet" version="1.0"><defs><clipPath id="id1"><path d="M 44.289062 27.054688 L 337 27.054688 L 337 348 L 44.289062 348 Z M 44.289062 27.054688 " clip-rule="nonzero"/></clipPath></defs><g clip-path="url(#id1)"><path fill="#e4117a" d="M 190.5625 27.316406 C 152.171875 27.316406 120.910156 58.585938 120.910156 96.984375 L 120.910156 110.917969 C 120.882812 113.421875 122.1875 115.761719 124.363281 117.042969 C 126.542969 118.292969 129.207031 118.292969 131.382812 117.042969 C 133.5625 115.761719 134.867188 113.421875 134.839844 110.917969 L 134.839844 96.984375 C 134.839844 66.125 159.710938 41.25 190.5625 41.25 C 221.417969 41.25 246.289062 66.125 246.289062 96.984375 L 246.289062 110.917969 C 246.261719 113.421875 247.566406 115.761719 249.746094 117.042969 C 251.921875 118.292969 254.585938 118.292969 256.765625 117.042969 C 258.941406 115.761719 260.246094 113.421875 260.21875 110.917969 L 260.21875 96.984375 C 260.21875 58.585938 228.957031 27.316406 190.5625 27.316406 Z M 127.875 124.851562 C 120.175781 124.851562 113.941406 131.085938 113.941406 138.785156 L 79.117188 138.785156 C 75.660156 138.785156 72.640625 141.234375 72.148438 144.664062 L 44.289062 332.773438 C 43.988281 334.761719 44.695312 336.882812 46.027344 338.433594 C 47.363281 339.957031 49.238281 340.828125 51.253906 340.828125 L 72.148438 340.828125 L 72.148438 347.796875 L 93.046875 347.796875 L 93.046875 340.828125 L 288.082031 340.828125 L 288.082031 347.796875 L 308.980469 347.796875 L 308.980469 340.828125 L 329.875 340.828125 C 331.890625 340.828125 333.765625 339.957031 335.101562 338.433594 C 336.433594 336.882812 337.140625 334.761719 336.839844 332.773438 L 308.980469 144.664062 C 308.488281 141.234375 305.46875 138.785156 302.011719 138.785156 L 267.183594 138.785156 C 267.183594 131.085938 260.953125 124.851562 253.253906 124.851562 C 245.554688 124.851562 239.324219 131.085938 239.324219 138.785156 L 141.804688 138.785156 C 141.804688 131.085938 135.574219 124.851562 127.875 124.851562 Z M 260.21875 191.039062 C 265.988281 191.039062 270.667969 195.71875 270.667969 201.488281 C 270.667969 207.257812 265.988281 211.941406 260.21875 211.941406 C 257.144531 211.941406 254.289062 210.578125 252.382812 208.457031 L 120.910156 208.457031 C 117.074219 208.457031 113.941406 205.355469 113.941406 201.488281 C 113.941406 197.625 117.074219 194.523438 120.910156 194.523438 L 252.382812 194.523438 C 254.289062 192.398438 257.144531 191.039062 260.21875 191.039062 Z M 260.21875 215.421875 C 264.054688 215.421875 267.183594 218.527344 267.183594 222.390625 L 267.183594 257.226562 C 267.183594 261.089844 264.054688 264.191406 260.21875 264.191406 C 256.382812 264.191406 253.253906 261.089844 253.253906 257.226562 L 253.253906 222.390625 C 253.253906 218.527344 256.382812 215.421875 260.21875 215.421875 Z M 260.21875 215.421875 " fill-opacity="1" fill-rule="nonzero"/></g></svg>