<svg xmlns="http://www.w3.org/2000/svg" xmlns:xlink="http://www.w3.org/1999/xlink" width="500" zoomAndPan="magnify" viewBox="0 0 375 374.999991" height="500" preserveAspectRatio="xMidYMid meet" version="1.0"><defs><clipPath id="id1"><path d="M 99 56.621094 L 275 56.621094 L 275 212 L 99 212 Z M 99 56.621094 " clip-rule="nonzero"/></clipPath><clipPath id="id2"><path d="M 61 177 L 317 177 L 317 329.621094 L 61 329.621094 Z M 61 177 " clip-rule="nonzero"/></clipPath></defs><g clip-path="url(#id1)"><path fill="#e199ae" d="M 187.007812 196.601562 C 148.160156 196.601562 116.667969 168.605469 116.667969 134.070312 C 116.667969 99.535156 148.160156 71.539062 187.007812 71.539062 C 225.855469 71.539062 257.34375 99.535156 257.34375 134.070312 C 257.34375 168.605469 225.855469 196.601562 187.007812 196.601562 Z M 187.007812 56.652344 C 138.910156 56.652344 99.921875 91.3125 99.921875 134.070312 C 99.921875 176.828125 138.910156 211.488281 187.007812 211.488281 C 235.105469 211.488281 274.09375 176.828125 274.09375 134.070312 C 274.09375 91.3125 235.105469 56.652344 187.007812 56.652344 " fill-opacity="1" fill-rule="nonzero"/></g><g clip-path="url(#id2)"><path fill="#e4117a" d="M 298.730469 177.871094 L 79.113281 177.871094 C 79.113281 177.871094 52.195312 281.113281 65.117188 304.777344 C 78.035156 328.433594 188.921875 329.507812 188.921875 329.507812 C 188.921875 329.507812 299.808594 328.433594 312.726562 304.777344 C 325.644531 281.113281 298.730469 177.871094 298.730469 177.871094 " fill-opacity="1" fill-rule="nonzero"/></g><path fill="#e199ae" d="M 298.730469 177.871094 L 79.113281 177.871094 C 79.113281 177.871094 73.496094 199.414062 68.625 225.074219 C 84.578125 243.535156 118.867188 266.527344 191.585938 270.394531 C 248.511719 273.421875 285.890625 251.894531 309.695312 227.636719 C 304.726562 200.863281 298.730469 177.871094 298.730469 177.871094 " fill-opacity="1" fill-rule="nonzero"/><path fill="#e4117a" d="M 293.78125 128.402344 C 286.828125 109.042969 187.488281 111.195312 187.488281 111.195312 C 187.488281 111.195312 88.148438 109.042969 81.195312 128.402344 C 74.242188 147.757812 9.738281 253.71875 187.488281 253.691406 C 365.234375 253.71875 300.734375 147.757812 293.78125 128.402344 " fill-opacity="1" fill-rule="nonzero"/><path fill="#e4117a" d="M 293.78125 128.402344 C 293.082031 126.453125 291.433594 124.722656 289.054688 123.1875 C 289.121094 123.339844 289.191406 123.492188 289.246094 123.648438 C 295.90625 143.269531 357.652344 250.675781 187.488281 250.648438 C 17.324219 250.675781 79.074219 143.269531 85.726562 123.648438 C 85.78125 123.492188 85.859375 123.339844 85.921875 123.1875 C 83.542969 124.722656 81.894531 126.453125 81.195312 128.402344 C 74.242188 147.757812 9.738281 253.71875 187.488281 253.691406 C 365.234375 253.71875 300.734375 147.757812 293.78125 128.402344 " fill-opacity="1" fill-rule="nonzero"/><path fill="#00855d" d="M 213.808594 242.191406 L 170.261719 242.191406 L 170.261719 224.273438 L 213.808594 224.273438 L 213.808594 242.191406 " fill-opacity="1" fill-rule="nonzero"/><path fill="#9bdeac" d="M 192.035156 242.191406 L 170.261719 242.191406 C 170.710938 264.539062 192.035156 263.941406 192.035156 263.941406 C 192.035156 263.941406 213.359375 264.539062 213.808594 242.191406 L 192.035156 242.191406 " fill-opacity="1" fill-rule="nonzero"/></svg>