<svg xmlns="http://www.w3.org/2000/svg" xmlns:xlink="http://www.w3.org/1999/xlink" width="500" zoomAndPan="magnify" viewBox="0 0 375 374.999991" height="500" preserveAspectRatio="xMidYMid meet" version="1.0"><path fill="#6c6ec4" d="M 308.609375 66.390625 C 306.628906 64.40625 304.597656 62.476562 302.523438 60.59375 C 300.445312 58.710938 298.324219 56.878906 296.15625 55.101562 C 293.988281 53.324219 291.78125 51.597656 289.527344 49.929688 C 287.277344 48.257812 284.988281 46.644531 282.65625 45.089844 C 280.324219 43.53125 277.957031 42.03125 275.554688 40.589844 C 273.148438 39.148438 270.710938 37.769531 268.238281 36.449219 C 265.765625 35.125 263.265625 33.867188 260.730469 32.667969 C 258.195312 31.46875 255.632812 30.332031 253.042969 29.261719 C 250.453125 28.1875 247.839844 27.179688 245.203125 26.234375 C 242.5625 25.292969 239.902344 24.414062 237.21875 23.597656 C 234.535156 22.785156 231.835938 22.039062 229.117188 21.355469 C 226.398438 20.675781 223.664062 20.0625 220.914062 19.515625 C 218.164062 18.96875 215.402344 18.488281 212.632812 18.078125 C 209.859375 17.667969 207.078125 17.324219 204.289062 17.046875 C 201.5 16.773438 198.703125 16.566406 195.902344 16.429688 C 193.105469 16.292969 190.304688 16.222656 187.5 16.222656 C 184.695312 16.222656 181.894531 16.292969 179.097656 16.429688 C 176.296875 16.566406 173.5 16.773438 170.710938 17.046875 C 167.921875 17.324219 165.140625 17.667969 162.367188 18.078125 C 159.597656 18.488281 156.835938 18.96875 154.085938 19.515625 C 151.335938 20.0625 148.601562 20.675781 145.882812 21.355469 C 143.164062 22.039062 140.464844 22.785156 137.78125 23.597656 C 135.097656 24.414062 132.4375 25.292969 129.796875 26.234375 C 127.160156 27.179688 124.546875 28.1875 121.957031 29.261719 C 119.367188 30.332031 116.804688 31.46875 114.269531 32.667969 C 111.734375 33.867188 109.234375 35.125 106.761719 36.449219 C 104.289062 37.769531 101.851562 39.148438 99.445312 40.589844 C 97.042969 42.03125 94.675781 43.53125 92.34375 45.089844 C 90.011719 46.644531 87.722656 48.257812 85.472656 49.929688 C 83.21875 51.597656 81.011719 53.324219 78.84375 55.101562 C 76.675781 56.878906 74.554688 58.710938 72.476562 60.59375 C 70.402344 62.476562 68.371094 64.40625 66.390625 66.390625 C 64.40625 68.371094 62.476562 70.402344 60.59375 72.476562 C 58.710938 74.554688 56.878906 76.675781 55.101562 78.84375 C 53.324219 81.011719 51.597656 83.21875 49.929688 85.472656 C 48.257812 87.722656 46.644531 90.011719 45.089844 92.34375 C 43.53125 94.675781 42.03125 97.042969 40.589844 99.445312 C 39.148438 101.851562 37.769531 104.289062 36.449219 106.761719 C 35.125 109.234375 33.867188 111.734375 32.667969 114.269531 C 31.46875 116.804688 30.332031 119.367188 29.261719 121.957031 C 28.1875 124.546875 27.179688 127.160156 26.234375 129.796875 C 25.292969 132.4375 24.414062 135.097656 23.597656 137.78125 C 22.785156 140.464844 22.039062 143.164062 21.355469 145.882812 C 20.675781 148.601562 20.0625 151.335938 19.515625 154.085938 C 18.96875 156.835938 18.488281 159.597656 18.078125 162.367188 C 17.667969 165.140625 17.324219 167.921875 17.046875 170.710938 C 16.773438 173.5 16.566406 176.296875 16.429688 179.097656 C 16.292969 181.894531 16.222656 184.695312 16.222656 187.5 C 16.222656 190.304688 16.292969 193.105469 16.429688 195.902344 C 16.566406 198.703125 16.773438 201.5 17.046875 204.289062 C 17.324219 207.078125 17.667969 209.859375 18.078125 212.632812 C 18.488281 215.402344 18.96875 218.164062 19.515625 220.914062 C 20.0625 223.664062 20.675781 226.398438 21.355469 229.117188 C 22.039062 231.835938 22.785156 234.535156 23.597656 237.21875 C 24.414062 239.902344 25.292969 242.5625 26.234375 245.203125 C 27.179688 247.839844 28.1875 250.453125 29.261719 253.042969 C 30.332031 255.632812 31.46875 258.195312 32.667969 260.730469 C 33.867188 263.265625 35.125 265.765625 36.449219 268.238281 C 37.769531 270.710938 39.148438 273.148438 40.589844 275.554688 C 42.03125 277.957031 43.53125 280.324219 45.089844 282.65625 C 46.644531 284.988281 48.257812 287.277344 49.929688 289.527344 C 51.597656 291.78125 53.324219 293.988281 55.101562 296.15625 C 56.878906 298.324219 58.710938 300.445312 60.59375 302.523438 C 62.476562 304.597656 64.40625 306.628906 66.390625 308.609375 C 68.371094 310.59375 70.402344 312.523438 72.476562 314.40625 C 74.554688 316.289062 76.675781 318.121094 78.84375 319.898438 C 81.011719 321.675781 83.21875 323.402344 85.472656 325.070312 C 87.722656 326.738281 90.011719 328.355469 92.34375 329.910156 C 94.675781 331.46875 97.042969 332.96875 99.445312 334.410156 C 101.851562 335.851562 104.289062 337.230469 106.761719 338.550781 C 109.234375 339.875 111.734375 341.132812 114.269531 342.332031 C 116.804688 343.53125 119.367188 344.664062 121.957031 345.738281 C 124.546875 346.8125 127.160156 347.820312 129.796875 348.765625 C 132.4375 349.707031 135.097656 350.585938 137.78125 351.402344 C 140.464844 352.214844 143.164062 352.960938 145.882812 353.644531 C 148.601562 354.324219 151.335938 354.9375 154.085938 355.484375 C 156.835938 356.03125 159.597656 356.511719 162.367188 356.921875 C 165.140625 357.332031 167.921875 357.675781 170.710938 357.953125 C 173.5 358.226562 176.296875 358.433594 179.097656 358.570312 C 181.894531 358.707031 184.695312 358.777344 187.5 358.777344 C 190.304688 358.777344 193.105469 358.707031 195.902344 358.570312 C 198.703125 358.433594 201.5 358.226562 204.289062 357.953125 C 207.078125 357.675781 209.859375 357.332031 212.632812 356.921875 C 215.402344 356.511719 218.164062 356.03125 220.914062 355.484375 C 223.664062 354.9375 226.398438 354.324219 229.117188 353.644531 C 231.835938 352.960938 234.535156 352.214844 237.21875 351.402344 C 239.902344 350.585938 242.5625 349.707031 245.203125 348.765625 C 247.839844 347.820312 250.453125 346.8125 253.042969 345.738281 C 255.632812 344.664062 258.195312 343.53125 260.730469 342.332031 C 263.265625 341.132812 265.765625 339.875 268.238281 338.550781 C 270.710938 337.230469 273.148438 335.851562 275.554688 334.410156 C 277.957031 332.96875 280.324219 331.46875 282.65625 329.910156 C 284.988281 328.355469 287.277344 326.738281 289.527344 325.070312 C 291.78125 323.402344 293.988281 321.675781 296.15625 319.898438 C 298.324219 318.121094 300.445312 316.289062 302.523438 314.40625 C 304.597656 312.523438 306.628906 310.59375 308.609375 308.609375 C 310.59375 306.628906 312.523438 304.597656 314.40625 302.523438 C 316.289062 300.445312 318.121094 298.324219 319.898438 296.15625 C 321.675781 293.988281 323.402344 291.78125 325.070312 289.527344 C 326.738281 287.277344 328.355469 284.988281 329.910156 282.65625 C 331.46875 280.324219 332.96875 277.957031 334.410156 275.554688 C 335.851562 273.148438 337.230469 270.710938 338.550781 268.238281 C 339.875 265.765625 341.132812 263.265625 342.332031 260.730469 C 343.53125 258.195312 344.664062 255.632812 345.738281 253.042969 C 346.8125 250.453125 347.820312 247.839844 348.765625 245.203125 C 349.707031 242.5625 350.585938 239.902344 351.402344 237.21875 C 352.214844 234.535156 352.960938 231.835938 353.644531 229.117188 C 354.324219 226.398438 354.9375 223.664062 355.484375 220.914062 C 356.03125 218.164062 356.511719 215.402344 356.921875 212.632812 C 357.332031 209.859375 357.675781 207.078125 357.953125 204.289062 C 358.226562 201.5 358.433594 198.703125 358.570312 195.902344 C 358.707031 193.105469 358.777344 190.304688 358.777344 187.5 C 358.777344 184.695312 358.707031 181.894531 358.570312 179.097656 C 358.433594 176.296875 358.226562 173.5 357.953125 170.710938 C 357.675781 167.921875 357.332031 165.140625 356.921875 162.367188 C 356.511719 159.597656 356.03125 156.835938 355.484375 154.085938 C 354.9375 151.335938 354.324219 148.601562 353.644531 145.882812 C 352.960938 143.164062 352.214844 140.464844 351.402344 137.78125 C 350.585938 135.097656 349.707031 132.4375 348.765625 129.796875 C 347.820312 127.160156 346.8125 124.546875 345.738281 121.957031 C 344.664062 119.367188 343.53125 116.804688 342.332031 114.269531 C 341.132812 111.734375 339.875 109.234375 338.550781 106.761719 C 337.230469 104.289062 335.851562 101.851562 334.410156 99.445312 C 332.96875 97.042969 331.46875 94.675781 329.910156 92.34375 C 328.355469 90.011719 326.738281 87.722656 325.070312 85.472656 C 323.402344 83.21875 321.675781 81.011719 319.898438 78.84375 C 318.121094 76.675781 316.289062 74.554688 314.40625 72.476562 C 312.523438 70.402344 310.59375 68.371094 308.609375 66.390625 Z M 303.460938 303.460938 C 301.5625 305.359375 299.617188 307.207031 297.628906 309.011719 C 295.640625 310.8125 293.609375 312.566406 291.535156 314.265625 C 289.460938 315.96875 287.34375 317.621094 285.191406 319.21875 C 283.035156 320.816406 280.839844 322.363281 278.609375 323.855469 C 276.378906 325.34375 274.109375 326.78125 271.808594 328.160156 C 269.507812 329.539062 267.171875 330.863281 264.804688 332.128906 C 262.4375 333.394531 260.042969 334.597656 257.617188 335.746094 C 255.1875 336.894531 252.738281 337.980469 250.257812 339.007812 C 247.777344 340.035156 245.273438 341 242.746094 341.90625 C 240.21875 342.808594 237.671875 343.652344 235.105469 344.429688 C 232.535156 345.210938 229.949219 345.925781 227.347656 346.578125 C 224.742188 347.230469 222.125 347.816406 219.492188 348.339844 C 216.859375 348.863281 214.21875 349.324219 211.5625 349.714844 C 208.90625 350.109375 206.246094 350.4375 203.574219 350.703125 C 200.902344 350.964844 198.226562 351.164062 195.546875 351.292969 C 192.867188 351.425781 190.183594 351.492188 187.5 351.492188 C 184.816406 351.492188 182.132812 351.425781 179.453125 351.292969 C 176.773438 351.164062 174.097656 350.964844 171.425781 350.703125 C 168.753906 350.4375 166.09375 350.109375 163.4375 349.714844 C 160.78125 349.324219 158.140625 348.863281 155.507812 348.339844 C 152.875 347.816406 150.257812 347.230469 147.652344 346.578125 C 145.050781 345.925781 142.464844 345.210938 139.894531 344.429688 C 137.328125 343.652344 134.78125 342.808594 132.253906 341.90625 C 129.726562 341 127.222656 340.035156 124.742188 339.007812 C 122.261719 337.980469 119.8125 336.894531 117.382812 335.746094 C 114.957031 334.597656 112.5625 333.394531 110.195312 332.128906 C 107.828125 330.863281 105.492188 329.539062 103.191406 328.160156 C 100.890625 326.78125 98.621094 325.34375 96.390625 323.855469 C 94.160156 322.363281 91.964844 320.816406 89.808594 319.21875 C 87.65625 317.621094 85.539062 315.96875 83.464844 314.265625 C 81.390625 312.566406 79.359375 310.8125 77.371094 309.011719 C 75.382812 307.207031 73.4375 305.359375 71.539062 303.460938 C 69.640625 301.5625 67.792969 299.617188 65.988281 297.628906 C 64.1875 295.640625 62.433594 293.609375 60.734375 291.535156 C 59.03125 289.460938 57.378906 287.34375 55.78125 285.191406 C 54.183594 283.035156 52.636719 280.839844 51.144531 278.609375 C 49.65625 276.378906 48.21875 274.109375 46.839844 271.808594 C 45.460938 269.507812 44.136719 267.171875 42.871094 264.804688 C 41.605469 262.4375 40.402344 260.042969 39.253906 257.617188 C 38.105469 255.1875 37.019531 252.738281 35.992188 250.257812 C 34.964844 247.777344 34 245.273438 33.09375 242.746094 C 32.191406 240.21875 31.347656 237.671875 30.570312 235.105469 C 29.789062 232.535156 29.074219 229.949219 28.421875 227.347656 C 27.769531 224.742188 27.183594 222.125 26.660156 219.492188 C 26.136719 216.859375 25.675781 214.21875 25.285156 211.5625 C 24.890625 208.90625 24.5625 206.246094 24.296875 203.574219 C 24.035156 200.902344 23.835938 198.226562 23.707031 195.546875 C 23.574219 192.867188 23.507812 190.183594 23.507812 187.5 C 23.507812 184.816406 23.574219 182.132812 23.707031 179.453125 C 23.835938 176.773438 24.035156 174.097656 24.296875 171.425781 C 24.5625 168.753906 24.890625 166.09375 25.285156 163.4375 C 25.675781 160.78125 26.136719 158.140625 26.660156 155.507812 C 27.183594 152.875 27.769531 150.257812 28.421875 147.652344 C 29.074219 145.050781 29.789062 142.464844 30.570312 139.894531 C 31.347656 137.328125 32.191406 134.78125 33.09375 132.253906 C 34 129.726562 34.964844 127.222656 35.992188 124.742188 C 37.019531 122.261719 38.105469 119.8125 39.253906 117.382812 C 40.402344 114.957031 41.605469 112.5625 42.871094 110.195312 C 44.136719 107.828125 45.460938 105.492188 46.839844 103.191406 C 48.21875 100.890625 49.65625 98.621094 51.144531 96.390625 C 52.636719 94.160156 54.183594 91.964844 55.78125 89.808594 C 57.378906 87.65625 59.03125 85.539062 60.734375 83.464844 C 62.433594 81.390625 64.1875 79.359375 65.988281 77.371094 C 67.792969 75.382812 69.640625 73.4375 71.539062 71.539062 C 73.4375 69.640625 75.382812 67.792969 77.371094 65.988281 C 79.359375 64.1875 81.390625 62.433594 83.464844 60.734375 C 85.539062 59.03125 87.65625 57.378906 89.808594 55.78125 C 91.964844 54.183594 94.160156 52.636719 96.390625 51.144531 C 98.621094 49.65625 100.890625 48.21875 103.191406 46.839844 C 105.492188 45.460938 107.828125 44.136719 110.195312 42.871094 C 112.5625 41.605469 114.957031 40.402344 117.382812 39.253906 C 119.8125 38.105469 122.261719 37.019531 124.742188 35.992188 C 127.222656 34.964844 129.726562 34 132.253906 33.09375 C 134.78125 32.191406 137.328125 31.347656 139.894531 30.570312 C 142.464844 29.789062 145.050781 29.074219 147.652344 28.421875 C 150.257812 27.769531 152.875 27.183594 155.507812 26.660156 C 158.140625 26.136719 160.78125 25.675781 163.4375 25.28125 C 166.09375 24.890625 168.753906 24.5625 171.425781 24.296875 C 174.097656 24.035156 176.773438 23.835938 179.453125 23.707031 C 182.132812 23.574219 184.816406 23.507812 187.5 23.507812 C 190.183594 23.507812 192.867188 23.574219 195.546875 23.707031 C 198.226562 23.835938 200.902344 24.035156 203.574219 24.296875 C 206.246094 24.5625 208.90625 24.890625 211.5625 25.28125 C 214.21875 25.675781 216.859375 26.136719 219.492188 26.660156 C 222.125 27.183594 224.742188 27.769531 227.347656 28.421875 C 229.949219 29.074219 232.535156 29.789062 235.105469 30.570312 C 237.671875 31.347656 240.21875 32.191406 242.746094 33.09375 C 245.273438 34 247.777344 34.964844 250.257812 35.992188 C 252.738281 37.019531 255.1875 38.105469 257.617188 39.253906 C 260.042969 40.402344 262.4375 41.605469 264.804688 42.871094 C 267.171875 44.136719 269.507812 45.460938 271.808594 46.839844 C 274.109375 48.21875 276.378906 49.65625 278.609375 51.144531 C 280.839844 52.636719 283.035156 54.183594 285.191406 55.78125 C 287.34375 57.378906 289.460938 59.03125 291.535156 60.734375 C 293.609375 62.433594 295.640625 64.1875 297.628906 65.988281 C 299.617188 67.792969 301.5625 69.640625 303.460938 71.539062 C 305.359375 73.4375 307.207031 75.382812 309.011719 77.371094 C 310.8125 79.359375 312.566406 81.390625 314.265625 83.464844 C 315.96875 85.539062 317.621094 87.65625 319.21875 89.808594 C 320.816406 91.964844 322.363281 94.160156 323.855469 96.390625 C 325.34375 98.621094 326.78125 100.890625 328.160156 103.191406 C 329.539062 105.492188 330.863281 107.828125 332.128906 110.195312 C 333.394531 112.5625 334.597656 114.957031 335.746094 117.382812 C 336.894531 119.8125 337.980469 122.261719 339.007812 124.742188 C 340.035156 127.222656 341 129.726562 341.90625 132.253906 C 342.808594 134.78125 343.652344 137.328125 344.429688 139.894531 C 345.210938 142.464844 345.925781 145.050781 346.578125 147.652344 C 347.230469 150.257812 347.816406 152.875 348.339844 155.507812 C 348.863281 158.140625 349.324219 160.78125 349.714844 163.4375 C 350.109375 166.09375 350.4375 168.753906 350.703125 171.425781 C 350.964844 174.097656 351.164062 176.773438 351.292969 179.453125 C 351.425781 182.132812 351.492188 184.816406 351.492188 187.5 C 351.492188 190.183594 351.425781 192.867188 351.292969 195.546875 C 351.164062 198.226562 350.964844 200.902344 350.703125 203.574219 C 350.4375 206.246094 350.109375 208.90625 349.714844 211.5625 C 349.324219 214.21875 348.863281 216.859375 348.339844 219.492188 C 347.816406 222.125 347.230469 224.742188 346.578125 227.347656 C 345.925781 229.949219 345.210938 232.535156 344.429688 235.105469 C 343.652344 237.671875 342.808594 240.21875 341.90625 242.746094 C 341 245.273438 340.035156 247.777344 339.007812 250.257812 C 337.980469 252.738281 336.894531 255.1875 335.746094 257.617188 C 334.597656 260.042969 333.394531 262.4375 332.128906 264.804688 C 330.863281 267.171875 329.539062 269.507812 328.160156 271.808594 C 326.78125 274.109375 325.34375 276.378906 323.855469 278.609375 C 322.363281 280.839844 320.816406 283.035156 319.21875 285.191406 C 317.621094 287.34375 315.96875 289.460938 314.265625 291.535156 C 312.566406 293.609375 310.8125 295.640625 309.011719 297.628906 C 307.207031 299.617188 305.359375 301.5625 303.460938 303.460938 Z M 303.460938 303.460938 " fill-opacity="1" fill-rule="nonzero"/><path fill="#6c6ec4" d="M 154.382812 102.007812 C 145.40625 98.113281 136.027344 96.039062 126.246094 95.785156 L 146.832031 131.445312 Z M 154.382812 102.007812 " fill-opacity="1" fill-rule="nonzero"/><path fill="#6c6ec4" d="M 167.089844 181.515625 C 167.074219 181.355469 167.066406 181.195312 167.050781 181.035156 L 145.730469 144.105469 L 110.765625 134.332031 C 110.664062 140.085938 111.199219 145.78125 112.375 151.414062 C 113.546875 157.046875 115.328125 162.484375 117.71875 167.71875 Z M 167.089844 181.515625 " fill-opacity="1" fill-rule="nonzero"/><path fill="#6c6ec4" d="M 119.9375 99.433594 C 115.265625 108.027344 112.371094 117.1875 111.257812 126.90625 L 140.523438 135.089844 Z M 119.9375 99.433594 " fill-opacity="1" fill-rule="nonzero"/><path fill="#6c6ec4" d="M 248.753906 95.789062 C 238.972656 96.039062 229.59375 98.113281 220.617188 102.011719 L 228.167969 131.445312 Z M 248.753906 95.789062 " fill-opacity="1" fill-rule="nonzero"/><path fill="#6c6ec4" d="M 222.960938 140.464844 L 213.941406 105.296875 C 208.90625 108.085938 204.246094 111.398438 199.953125 115.230469 C 195.660156 119.0625 191.84375 123.324219 188.503906 128.011719 L 201.316406 177.953125 Z M 222.960938 140.464844 " fill-opacity="1" fill-rule="nonzero"/><path fill="#6c6ec4" d="M 166.957031 166.304688 C 167.472656 160.039062 168.671875 153.90625 170.550781 147.902344 C 172.425781 141.902344 174.941406 136.183594 178.089844 130.742188 C 179.5625 128.191406 181.160156 125.722656 182.886719 123.335938 C 176.734375 115.960938 169.460938 109.949219 161.058594 105.296875 L 152.039062 140.464844 Z M 166.957031 166.304688 " fill-opacity="1" fill-rule="nonzero"/><path fill="#6c6ec4" d="M 216.351562 272.332031 L 224.890625 272.332031 L 220.621094 261.703125 Z M 216.351562 272.332031 " fill-opacity="1" fill-rule="nonzero"/><path fill="#6c6ec4" d="M 263.742188 126.910156 C 262.628906 117.1875 259.734375 108.027344 255.0625 99.433594 L 234.476562 135.089844 Z M 263.742188 126.910156 " fill-opacity="1" fill-rule="nonzero"/><path fill="#6c6ec4" d="M 122.46875 176.609375 C 123.925781 178.984375 125.507812 181.269531 127.214844 183.46875 C 128.921875 185.671875 130.742188 187.773438 132.679688 189.773438 C 134.617188 191.777344 136.65625 193.667969 138.796875 195.445312 C 140.941406 197.226562 143.171875 198.882812 145.496094 200.421875 C 147.820312 201.957031 150.21875 203.359375 152.695312 204.632812 C 155.171875 205.910156 157.710938 207.042969 160.3125 208.039062 C 162.914062 209.039062 165.558594 209.890625 168.253906 210.597656 C 170.949219 211.304688 173.671875 211.867188 176.425781 212.277344 C 172.574219 205.058594 169.855469 197.4375 168.273438 189.410156 Z M 122.46875 176.609375 " fill-opacity="1" fill-rule="nonzero"/><path fill="#6c6ec4" d="M 187.5 42.996094 C 107.691406 42.996094 42.996094 107.691406 42.996094 187.5 C 42.996094 267.308594 107.691406 332.003906 187.5 332.003906 C 267.308594 332.003906 332.003906 267.308594 332.003906 187.5 C 332.003906 107.691406 267.308594 42.996094 187.5 42.996094 Z M 103.5 133.007812 C 103.734375 125.398438 104.992188 117.964844 107.273438 110.699219 C 109.558594 103.4375 112.78125 96.621094 116.949219 90.246094 C 117.265625 89.761719 117.671875 89.378906 118.171875 89.089844 C 118.671875 88.800781 119.210938 88.640625 119.785156 88.605469 C 122.960938 88.4375 126.136719 88.453125 129.3125 88.648438 C 132.488281 88.84375 135.640625 89.21875 138.773438 89.773438 C 141.902344 90.328125 144.996094 91.058594 148.042969 91.96875 C 151.089844 92.875 154.078125 93.953125 157.003906 95.203125 C 159.929688 96.453125 162.773438 97.863281 165.535156 99.4375 C 168.300781 101.011719 170.964844 102.738281 173.53125 104.613281 C 176.101562 106.492188 178.550781 108.511719 180.886719 110.667969 C 183.226562 112.828125 185.429688 115.109375 187.507812 117.519531 C 194.304688 109.648438 202.289062 103.257812 211.453125 98.34375 C 218.160156 94.738281 225.230469 92.113281 232.664062 90.457031 C 240.09375 88.804688 247.613281 88.1875 255.214844 88.605469 C 255.789062 88.640625 256.328125 88.800781 256.828125 89.089844 C 257.328125 89.378906 257.734375 89.761719 258.050781 90.246094 C 262.214844 96.621094 265.441406 103.4375 267.726562 110.699219 C 270.007812 117.964844 271.265625 125.398438 271.5 133.007812 C 271.558594 134.972656 271.546875 136.933594 271.46875 138.894531 C 271.390625 140.859375 271.246094 142.816406 271.03125 144.765625 C 270.820312 146.71875 270.539062 148.660156 270.191406 150.59375 C 269.84375 152.527344 269.429688 154.445312 268.949219 156.347656 C 268.46875 158.253906 267.925781 160.136719 267.3125 162.003906 C 266.703125 163.871094 266.027344 165.710938 265.292969 167.53125 C 264.554688 169.351562 263.753906 171.144531 262.890625 172.90625 C 262.027344 174.671875 261.105469 176.402344 260.125 178.105469 C 259.144531 179.804688 258.105469 181.46875 257.007812 183.097656 C 255.910156 184.726562 254.757812 186.316406 253.550781 187.863281 C 252.34375 189.414062 251.085938 190.917969 249.777344 192.378906 C 248.464844 193.839844 247.105469 195.257812 245.695312 196.625 C 244.289062 197.992188 242.832031 199.308594 241.332031 200.578125 C 239.835938 201.84375 238.292969 203.058594 236.707031 204.21875 C 235.125 205.378906 233.503906 206.484375 231.84375 207.53125 C 230.183594 208.582031 228.488281 209.570312 226.757812 210.503906 C 220.742188 213.730469 214.425781 216.179688 207.804688 217.851562 C 201.183594 219.519531 194.460938 220.359375 187.632812 220.371094 C 186.839844 220.371094 186.050781 220.359375 185.257812 220.335938 L 175.910156 236.527344 C 175.667969 236.949219 175.355469 237.308594 174.972656 237.601562 C 174.589844 237.898438 174.164062 238.109375 173.695312 238.234375 C 173.230469 238.363281 172.757812 238.394531 172.277344 238.332031 C 171.796875 238.269531 171.347656 238.117188 170.925781 237.875 C 170.507812 237.632812 170.148438 237.320312 169.855469 236.933594 C 169.5625 236.550781 169.351562 236.125 169.226562 235.65625 C 169.101562 235.1875 169.074219 234.714844 169.136719 234.234375 C 169.203125 233.753906 169.355469 233.304688 169.601562 232.886719 L 177.195312 219.730469 C 174.617188 219.386719 172.0625 218.929688 169.527344 218.351562 C 166.992188 217.777344 164.488281 217.085938 162.015625 216.28125 C 159.542969 215.472656 157.113281 214.554688 154.722656 213.527344 C 152.335938 212.496094 150 211.359375 147.71875 210.113281 C 145.433594 208.871094 143.210938 207.523438 141.054688 206.074219 C 138.894531 204.625 136.804688 203.082031 134.785156 201.441406 C 132.769531 199.800781 130.832031 198.070312 128.972656 196.253906 C 127.113281 194.433594 125.34375 192.535156 123.660156 190.550781 C 121.976562 188.570312 120.386719 186.515625 118.890625 184.390625 C 117.394531 182.261719 116 180.070312 114.707031 177.8125 C 113.414062 175.558594 112.226562 173.246094 111.144531 170.882812 C 110.0625 168.515625 109.09375 166.109375 108.234375 163.652344 C 107.375 161.199219 106.628906 158.710938 105.996094 156.1875 C 105.367188 153.664062 104.851562 151.121094 104.457031 148.550781 C 104.058594 145.980469 103.78125 143.398438 103.621094 140.800781 C 103.460938 138.207031 103.421875 135.609375 103.5 133.007812 Z M 120.832031 285.714844 L 111.578125 285.714844 L 97.390625 252.496094 L 107.546875 252.496094 L 116.5625 274.136719 L 125.765625 252.496094 L 135.066406 252.496094 Z M 163.679688 285.714844 L 137.011719 285.714844 L 137.011719 252.496094 L 163.0625 252.496094 L 163.0625 259.757812 L 146.3125 259.757812 L 146.3125 265.355469 L 161.070312 265.355469 L 161.070312 272.378906 L 146.3125 272.378906 L 146.3125 278.453125 L 163.679688 278.453125 Z M 177.820312 274.015625 C 178.601562 275.460938 179.710938 276.582031 181.140625 277.386719 C 182.664062 278.226562 184.292969 278.628906 186.03125 278.597656 C 187.800781 278.609375 189.496094 278.242188 191.105469 277.503906 L 191.105469 268.394531 L 199.410156 268.394531 L 199.410156 282.152344 C 197.40625 283.570312 195.222656 284.613281 192.863281 285.285156 C 190.449219 286.007812 187.980469 286.371094 185.460938 286.378906 C 182.144531 286.429688 179.011719 285.695312 176.066406 284.171875 C 173.300781 282.742188 171.117188 280.695312 169.515625 278.027344 C 168.738281 276.667969 168.148438 275.234375 167.746094 273.722656 C 167.34375 272.207031 167.144531 270.671875 167.144531 269.105469 C 167.144531 267.539062 167.34375 266.003906 167.746094 264.488281 C 168.148438 262.976562 168.738281 261.542969 169.515625 260.183594 C 171.128906 257.507812 173.328125 255.460938 176.113281 254.039062 C 179.109375 252.511719 182.289062 251.777344 185.652344 251.832031 C 188.539062 251.785156 191.324219 252.308594 194 253.398438 C 196.425781 254.398438 198.480469 255.902344 200.171875 257.90625 L 194.191406 263.316406 C 193.183594 262.136719 191.976562 261.222656 190.566406 260.574219 C 189.15625 259.929688 187.675781 259.609375 186.125 259.617188 C 185.492188 259.574219 184.859375 259.601562 184.230469 259.695312 C 183.601562 259.789062 182.992188 259.945312 182.398438 260.171875 C 181.804688 260.394531 181.238281 260.679688 180.707031 261.023438 C 180.171875 261.367188 179.679688 261.765625 179.230469 262.214844 C 178.78125 262.664062 178.386719 263.152344 178.042969 263.6875 C 177.699219 264.222656 177.414062 264.785156 177.191406 265.378906 C 176.964844 265.972656 176.808594 266.585938 176.714844 267.210938 C 176.621094 267.839844 176.59375 268.472656 176.632812 269.105469 C 176.605469 270.847656 177 272.484375 177.820312 274.015625 Z M 230.253906 285.714844 L 227.644531 279.257812 L 213.597656 279.257812 L 210.988281 285.714844 L 201.402344 285.714844 L 216.066406 252.496094 L 225.320312 252.496094 L 240.027344 285.714844 Z M 274.289062 285.714844 L 266.554688 285.714844 L 251.890625 268.015625 L 251.890625 285.714844 L 242.6875 285.714844 L 242.6875 252.496094 L 250.421875 252.496094 L 265.082031 270.195312 L 265.082031 252.496094 L 274.289062 252.496094 Z M 274.289062 285.714844 " fill-opacity="1" fill-rule="nonzero"/><path fill="#6c6ec4" d="M 173.996094 175.597656 C 174.179688 181.515625 175.046875 187.328125 176.59375 193.042969 C 178.140625 198.753906 180.328125 204.210938 183.152344 209.410156 L 196.109375 186.972656 L 183.183594 136.574219 C 179.960938 142.5625 177.574219 148.863281 176.015625 155.480469 C 174.457031 162.097656 173.785156 168.804688 173.996094 175.597656 Z M 173.996094 175.597656 " fill-opacity="1" fill-rule="nonzero"/><path fill="#6c6ec4" d="M 189.460938 213.054688 C 195.378906 212.902344 201.199219 212.070312 206.917969 210.550781 C 212.640625 209.035156 218.109375 206.878906 223.324219 204.078125 C 229.3125 200.863281 234.785156 196.929688 239.738281 192.269531 C 244.6875 187.613281 248.953125 182.394531 252.527344 176.609375 L 202.417969 190.617188 Z M 189.460938 213.054688 " fill-opacity="1" fill-rule="nonzero"/><path fill="#6c6ec4" d="M 207.625 181.597656 L 257.28125 167.71875 C 259.671875 162.484375 261.453125 157.046875 262.625 151.414062 C 263.800781 145.78125 264.335938 140.085938 264.234375 134.332031 L 229.269531 144.105469 Z M 207.625 181.597656 " fill-opacity="1" fill-rule="nonzero"/></svg>